<svg width="25" height="25" viewBox="0 0 25 25" fill="none" xmlns="http://www.w3.org/2000/svg">
<path d="M12.5 12.5C15.2614 12.5 17.5 10.2614 17.5 7.5C17.5 4.73858 15.2614 2.5 12.5 2.5C9.73858 2.5 7.5 4.73858 7.5 7.5C7.5 10.2614 9.73858 12.5 12.5 12.5Z" stroke="white" stroke-width="1.5" stroke-linecap="round" stroke-linejoin="round"/>
<path d="M3.90991 22.5C3.90991 18.63 7.75991 15.5 12.4999 15.5C13.4599 15.5 14.3899 15.63 15.2599 15.87" stroke="white" stroke-width="1.5" stroke-linecap="round" stroke-linejoin="round"/>
<path d="M22.5 18.5C22.5 19.25 22.29 19.96 21.92 20.56C21.71 20.92 21.44 21.24 21.13 21.5C20.43 22.13 19.51 22.5 18.5 22.5C17.04 22.5 15.77 21.72 15.08 20.56C14.71 19.96 14.5 19.25 14.5 18.5C14.5 17.24 15.08 16.11 16 15.38C16.69 14.83 17.56 14.5 18.5 14.5C20.71 14.5 22.5 16.29 22.5 18.5Z" stroke="white" stroke-width="1.5" stroke-miterlimit="10" stroke-linecap="round" stroke-linejoin="round"/>
<path d="M16.9399 18.5L17.9299 19.49L20.0599 17.52" stroke="white" stroke-width="1.5" stroke-linecap="round" stroke-linejoin="round"/>
</svg>
