<svg width="24" height="25" viewBox="0 0 24 25" fill="none" xmlns="http://www.w3.org/2000/svg">
<path d="M12 2.80518C6.48 2.80518 2 7.28518 2 12.8052C2 18.3252 6.48 22.8052 12 22.8052C17.52 22.8052 22 18.3252 22 12.8052C22 7.28518 17.52 2.80518 12 2.80518ZM7 13.5552H5C4.59 13.5552 4.25 13.2152 4.25 12.8052C4.25 12.3952 4.59 12.0552 5 12.0552H7C7.41 12.0552 7.75 12.3952 7.75 12.8052C7.75 13.2152 7.41 13.5552 7 13.5552ZM12 15.0552C10.76 15.0552 9.75 14.0452 9.75 12.8052C9.75 11.5652 10.76 10.5552 12 10.5552C13.24 10.5552 14.25 11.5652 14.25 12.8052C14.25 14.0452 13.24 15.0552 12 15.0552ZM19 13.5552H17C16.59 13.5552 16.25 13.2152 16.25 12.8052C16.25 12.3952 16.59 12.0552 17 12.0552H19C19.41 12.0552 19.75 12.3952 19.75 12.8052C19.75 13.2152 19.41 13.5552 19 13.5552Z" fill="white"/>
</svg>
