<svg width="40" height="40" viewBox="0 0 40 40" fill="none" xmlns="http://www.w3.org/2000/svg">
<path d="M33.3333 20V30C33.3333 33.6833 30.35 36.6667 26.6667 36.6667H13.3333C9.65 36.6667 6.66667 33.6833 6.66667 30V20C6.66667 19.0833 7.41667 18.3333 8.33334 18.3333H11.6167C12.5333 18.3333 13.2833 19.0833 13.2833 20V25.2333C13.2833 26.4667 13.9667 27.6 15.05 28.1833C15.5333 28.45 16.0667 28.5833 16.6167 28.5833C17.25 28.5833 17.8833 28.4 18.4333 28.0333L20.0167 27L21.4833 27.9833C22.5 28.6667 23.8 28.75 24.8833 28.1667C25.9833 27.5833 26.6667 26.4667 26.6667 25.2167V20C26.6667 19.0833 27.4167 18.3333 28.3333 18.3333H31.6667C32.5833 18.3333 33.3333 19.0833 33.3333 20Z" fill="white"/>
<path d="M35.8333 11.6667V13.3333C35.8333 15.1667 34.95 16.6667 32.5 16.6667H7.50001C4.95001 16.6667 4.16667 15.1667 4.16667 13.3333V11.6667C4.16667 9.83334 4.95001 8.33334 7.50001 8.33334H32.5C34.95 8.33334 35.8333 9.83334 35.8333 11.6667Z" fill="white"/>
<path d="M19.4 8.33333H10.2C9.63333 7.71666 9.65 6.76666 10.25 6.16666L12.6167 3.79999C13.2333 3.18333 14.25 3.18333 14.8667 3.79999L19.4 8.33333Z" fill="white"/>
<path d="M29.7833 8.33333H20.5833L25.1167 3.79999C25.7333 3.18333 26.75 3.18333 27.3667 3.79999L29.7333 6.16666C30.3333 6.76666 30.35 7.71666 29.7833 8.33333Z" fill="white"/>
<path d="M23.2833 18.3333C24.2 18.3333 24.95 19.0833 24.95 20V25.2167C24.95 26.55 23.4667 27.35 22.3667 26.6L20.8667 25.6C20.3167 25.2333 19.6 25.2333 19.0333 25.6L17.4667 26.6333C16.3667 27.3667 14.9 26.5667 14.9 25.25V20C14.9 19.0833 15.65 18.3333 16.5667 18.3333H23.2833Z" fill="white"/>
</svg>
