<svg xmlns="http://www.w3.org/2000/svg" width="822" height="480" viewBox="0 0 822 480" fill="none">
<g clip-path="url(#clip0_163_215)">
<g filter="url(#filter0_d_163_215)">
<path fill-rule="evenodd" clip-rule="evenodd" d="M411 0C637.99 0 822 184.01 822 411C822 637.99 637.99 822 411 822C184.01 822 0 637.99 0 411C0 184.01 184.01 0 411 0ZM411 221.694C515.549 221.694 600.306 306.451 600.306 411C600.306 515.549 515.549 600.306 411 600.306C306.451 600.306 221.694 515.549 221.694 411C221.694 306.451 306.451 221.694 411 221.694Z" fill="url(#paint0_linear_163_215)"/>
</g>
<g filter="url(#filter1_d_163_215)">
<path fill-rule="evenodd" clip-rule="evenodd" d="M27.0615 308.121L27.0319 307.949C35.847 275.189 48.9986 243.027 66.7652 212.256C69.0993 208.21 71.4986 204.223 73.9571 200.29L78.7082 201.338L76.8718 195.693C84.4961 183.85 92.6596 172.535 101.303 161.771L104.609 165.503L103.471 159.093C111.812 148.892 120.592 139.188 129.769 129.994L129.928 129.934L268.72 268.725L268.69 268.773C256.557 280.929 245.781 294.839 236.788 310.42C234.194 314.91 231.8 319.46 229.59 324.057L224.632 328.311L225.461 333.239C224.733 334.969 224.034 336.705 223.358 338.447L220.313 340.094L221.172 344.371C220.609 345.976 220.064 347.588 219.543 349.199L215.977 350.627L218.323 353.115C217.748 355.029 217.197 356.948 216.682 358.873L216.652 358.921L27.0615 308.121Z" fill="url(#paint1_linear_163_215)"/>
<g filter="url(#filter2_d_163_215)">
<path fill-rule="evenodd" clip-rule="evenodd" d="M156.421 305.242L101.498 284.549L98.0447 268.352L131.569 210.965L144.176 208.441L192.849 242.452L193.139 284.259L156.421 305.242Z" fill="#8FA3AA"/>
<path fill-rule="evenodd" clip-rule="evenodd" d="M156.421 305.242L156.664 314.851L97.701 289.715L101.498 284.549L156.421 305.242Z" fill="#4D6474"/>
<path fill-rule="evenodd" clip-rule="evenodd" d="M156.421 305.242L156.664 314.851L200.218 289.762L193.139 284.259L156.421 305.242Z" fill="#4A5859"/>
<path fill-rule="evenodd" clip-rule="evenodd" d="M193.139 284.259L200.219 289.762L199.828 239.585L192.849 242.452L193.139 284.259Z" fill="#646D6A"/>
<path fill-rule="evenodd" clip-rule="evenodd" d="M199.828 239.585L192.849 242.452L144.176 208.441L149.265 200.29L199.828 239.585Z" fill="#A0A9A8"/>
<path fill-rule="evenodd" clip-rule="evenodd" d="M101.498 284.549L97.701 289.715L90.9594 268.086L98.0446 268.352L101.498 284.549Z" fill="#677E92"/>
<path fill-rule="evenodd" clip-rule="evenodd" d="M144.176 208.441L131.569 210.965L126.706 206.06L149.265 200.29L144.176 208.441Z" fill="#EFF1F0"/>
<path fill-rule="evenodd" clip-rule="evenodd" d="M98.0446 268.352L90.9594 268.086L126.706 206.06L131.569 210.965L98.0446 268.352Z" fill="#D8E0E2"/>
</g>
<path fill-rule="evenodd" clip-rule="evenodd" d="M692.066 129.934L692.226 129.994C716.189 154.004 737.462 181.48 755.229 212.251C757.563 216.297 759.82 220.367 762 224.46L758.718 228.05L764.524 229.282C770.969 241.806 776.686 254.531 781.68 267.404L776.799 268.406L782.918 270.627C787.581 282.949 791.597 295.408 794.968 307.955L794.938 308.127L605.348 358.927L605.318 358.879C600.857 342.292 594.199 326.006 585.2 310.426C582.605 305.935 579.868 301.581 576.989 297.375L575.786 290.953L571.1 289.205C569.963 287.712 568.814 286.237 567.641 284.78L567.735 281.32L563.606 279.922C562.498 278.631 561.373 277.351 560.241 276.095L560.792 272.292L557.463 273.08C556.094 271.622 554.702 270.189 553.298 268.779L553.269 268.731L692.06 129.94L692.066 129.934Z" fill="url(#paint2_linear_163_215)"/>
<g filter="url(#filter3_d_163_215)">
<path fill-rule="evenodd" clip-rule="evenodd" d="M629.88 243.406L675.265 206.184L691.017 211.297L723.955 269.022L719.832 281.208L666.047 306.35L629.696 285.698L629.88 243.406Z" fill="#8FA3AA"/>
<path fill-rule="evenodd" clip-rule="evenodd" d="M629.88 243.406L621.438 238.815L672.688 200.319L675.265 206.184L629.88 243.406Z" fill="#4D6474"/>
<path fill-rule="evenodd" clip-rule="evenodd" d="M629.88 243.406L621.438 238.814L621.384 289.075L629.696 285.698L629.88 243.406Z" fill="#4A5859"/>
<path fill-rule="evenodd" clip-rule="evenodd" d="M629.696 285.698L621.384 289.075L665.039 313.832L666.047 306.35L629.696 285.698Z" fill="#646D6A"/>
<path fill-rule="evenodd" clip-rule="evenodd" d="M665.039 313.832L666.047 306.35L719.832 281.208L724.352 289.685L665.039 313.832Z" fill="#A0A9A8"/>
<path fill-rule="evenodd" clip-rule="evenodd" d="M675.265 206.184L672.688 200.319L694.785 205.296L691.017 211.297L675.265 206.184Z" fill="#677E92"/>
<path fill-rule="evenodd" clip-rule="evenodd" d="M719.832 281.208L723.955 269.022L730.632 267.262L724.352 289.685L719.832 281.208Z" fill="#EFF1F0"/>
<path fill-rule="evenodd" clip-rule="evenodd" d="M691.017 211.297L694.785 205.296L730.632 267.262L723.955 269.022L691.017 211.297Z" fill="#D8E0E2"/>
</g>
<path fill-rule="evenodd" clip-rule="evenodd" d="M513.879 794.944L513.742 795.051C480.964 803.795 446.533 808.487 411 808.487C406.326 808.487 401.675 808.404 397.043 808.244L395.573 803.606L391.604 808.019C377.534 807.338 363.66 805.928 350.011 803.819L351.587 799.091L346.604 803.28C333.601 801.159 320.805 798.404 308.257 795.051L308.121 794.944L358.921 605.354H358.974C375.568 609.785 393.002 612.161 410.994 612.161C416.178 612.161 421.32 611.965 426.403 611.574L432.564 613.742L436.42 610.561C438.281 610.324 440.135 610.063 441.983 609.779L444.933 611.592L448.21 608.713C449.88 608.399 451.551 608.067 453.21 607.711L456.231 610.087L457.214 606.811C459.163 606.355 461.095 605.869 463.02 605.354H463.073L513.873 794.944H513.879Z" fill="url(#paint3_linear_163_215)"/>
<g filter="url(#filter4_d_163_215)">
<path fill-rule="evenodd" clip-rule="evenodd" d="M446.705 684.352L456.243 742.267L443.938 753.357L377.481 753.013L368.992 743.357L374.11 684.198L410.171 663.049L446.705 684.352Z" fill="#8FA3AA"/>
<path fill-rule="evenodd" clip-rule="evenodd" d="M446.705 684.352L454.898 679.34L462.617 742.966L456.243 742.267L446.705 684.352Z" fill="#4D6474"/>
<path fill-rule="evenodd" clip-rule="evenodd" d="M446.705 684.352L454.898 679.34L411.397 654.163L410.171 663.049L446.705 684.352Z" fill="#4A5859"/>
<path fill-rule="evenodd" clip-rule="evenodd" d="M410.171 663.049L411.397 654.163L368.133 679.589L374.11 684.198L410.171 663.049Z" fill="#646D6A"/>
<path fill-rule="evenodd" clip-rule="evenodd" d="M368.133 679.589L374.11 684.198L368.992 743.357L359.389 743.031L368.133 679.589Z" fill="#A0A9A8"/>
<path fill-rule="evenodd" clip-rule="evenodd" d="M456.243 742.267L462.617 742.966L447.256 759.619L443.938 753.357L456.243 742.267Z" fill="#677E92"/>
<path fill-rule="evenodd" clip-rule="evenodd" d="M368.992 743.357L377.481 753.013L375.668 759.678L359.389 743.031L368.992 743.357Z" fill="#EFF1F0"/>
<path fill-rule="evenodd" clip-rule="evenodd" d="M443.938 753.357L447.256 759.619L375.668 759.678L377.481 753.013L443.938 753.357Z" fill="#D8E0E2"/>
</g>
<path fill-rule="evenodd" clip-rule="evenodd" d="M129.934 129.934L129.994 129.774C154.004 105.811 181.481 84.5376 212.256 66.7711C216.303 64.437 220.373 62.1799 224.466 59.9998L228.056 63.2818L229.288 57.4761C241.812 51.0306 254.537 45.3138 267.41 40.3197L268.412 45.2012L270.633 39.0816C282.955 34.4193 295.414 30.4027 307.961 27.0319L308.133 27.0615L358.933 216.652L358.885 216.682C342.298 221.143 326.012 227.801 310.432 236.8C305.941 239.395 301.587 242.132 297.381 245.011L290.959 246.214L289.211 250.9C287.718 252.037 286.243 253.186 284.786 254.359L281.326 254.265L279.928 258.394C278.637 259.502 277.357 260.627 276.101 261.759L272.298 261.208L273.086 264.537C271.628 265.906 270.195 267.298 268.785 268.702L268.737 268.731L129.946 129.94L129.934 129.934Z" fill="url(#paint4_linear_163_215)"/>
<g filter="url(#filter5_d_163_215)">
<path fill-rule="evenodd" clip-rule="evenodd" d="M242.541 192.298L205.977 146.386L211.315 130.705L269.508 98.6016L281.628 102.891L305.994 157.037L284.827 193.086L242.541 192.298Z" fill="#FDF540"/>
<path fill-rule="evenodd" clip-rule="evenodd" d="M242.541 192.298L237.825 200.669L200.071 148.88L205.977 146.386L242.541 192.298Z" fill="#E58500"/>
<path fill-rule="evenodd" clip-rule="evenodd" d="M242.541 192.298L237.825 200.669L288.086 201.445L284.827 193.086L242.541 192.298Z" fill="#D34A00"/>
<path fill-rule="evenodd" clip-rule="evenodd" d="M284.827 193.086L288.086 201.445L313.459 158.151L305.994 157.037L284.827 193.086Z" fill="#E67300"/>
<path fill-rule="evenodd" clip-rule="evenodd" d="M313.459 158.151L305.994 157.037L281.628 102.891L290.171 98.4949L313.459 158.151Z" fill="#FFDC12"/>
<path fill-rule="evenodd" clip-rule="evenodd" d="M205.977 146.386L200.071 148.88L205.367 126.854L211.315 130.705L205.977 146.386Z" fill="#EAA705"/>
<path fill-rule="evenodd" clip-rule="evenodd" d="M281.628 102.891L269.508 98.6015L267.837 91.8954L290.171 98.4949L281.628 102.891Z" fill="#FFFFAD"/>
<path fill-rule="evenodd" clip-rule="evenodd" d="M211.315 130.705L205.367 126.854L267.837 91.8954L269.507 98.6015L211.315 130.705Z" fill="#FFFCAD"/>
</g>
<path fill-rule="evenodd" clip-rule="evenodd" d="M794.944 308.121L795.051 308.257C803.795 341.036 808.487 375.467 808.487 411C808.487 415.674 808.404 420.325 808.244 424.957L803.606 426.426L808.019 430.396C807.338 444.465 805.928 458.34 803.819 471.989L799.091 470.413L803.28 475.395C801.159 488.399 798.404 501.195 795.051 513.742L794.944 513.879L605.354 463.079V463.026C609.785 446.432 612.161 428.998 612.161 411.006C612.161 405.822 611.965 400.68 611.574 395.597L613.742 389.436L610.561 385.579C610.324 383.719 610.063 381.865 609.779 380.017L611.592 377.066L608.713 373.79C608.399 372.12 608.067 370.449 607.712 368.79L610.087 365.769L606.811 364.786C606.355 362.837 605.869 360.905 605.354 358.98V358.927L794.944 308.127V308.121Z" fill="url(#paint5_linear_163_215)"/>
<g filter="url(#filter6_d_163_215)">
<path fill-rule="evenodd" clip-rule="evenodd" d="M684.631 374.46L742.675 365.751L753.588 378.216L752.296 444.661L742.515 453.014L683.44 447.048L662.806 410.686L684.631 374.46Z" fill="#FDF540"/>
<path fill-rule="evenodd" clip-rule="evenodd" d="M684.631 374.46L679.737 366.196L743.469 359.395L742.676 365.751L684.631 374.46Z" fill="#E58500"/>
<path fill-rule="evenodd" clip-rule="evenodd" d="M684.631 374.46L679.737 366.196L653.938 409.329L662.806 410.686L684.631 374.46Z" fill="#D34A00"/>
<path fill-rule="evenodd" clip-rule="evenodd" d="M662.806 410.686L653.938 409.329L678.742 452.955L683.44 447.048L662.806 410.686Z" fill="#E67300"/>
<path fill-rule="evenodd" clip-rule="evenodd" d="M678.742 452.955L683.44 447.048L742.516 453.014L742.053 462.611L678.742 452.955Z" fill="#FFDC12"/>
<path fill-rule="evenodd" clip-rule="evenodd" d="M742.675 365.751L743.469 359.395L759.897 374.987L753.588 378.216L742.675 365.751Z" fill="#EAA705"/>
<path fill-rule="evenodd" clip-rule="evenodd" d="M742.516 453.014L752.296 444.661L758.931 446.569L742.053 462.611L742.516 453.014Z" fill="#FFFFAD"/>
<path fill-rule="evenodd" clip-rule="evenodd" d="M753.588 378.216L759.897 374.987L758.931 446.569L752.296 444.661L753.588 378.216Z" fill="#FFFCAD"/>
</g>
<path fill-rule="evenodd" clip-rule="evenodd" d="M308.121 794.944L307.949 794.974C275.189 786.159 243.027 773.007 212.256 755.241C208.21 752.906 204.223 750.507 200.29 748.049L201.338 743.297L195.693 745.134C183.85 737.51 172.535 729.346 161.771 720.703L165.503 717.397L159.093 718.535C148.892 710.193 139.188 701.414 129.994 692.237L129.934 692.077L268.725 553.286L268.773 553.316C280.929 565.448 294.839 576.224 310.42 585.217C314.91 587.812 319.46 590.206 324.057 592.415L328.311 597.374L333.239 596.544C334.969 597.273 336.705 597.972 338.447 598.647L340.094 601.692L344.371 600.833C345.976 601.396 347.588 601.941 349.199 602.463L350.627 606.029L353.115 603.683C355.029 604.258 356.948 604.809 358.873 605.324L358.921 605.354L308.121 794.944Z" fill="url(#paint6_linear_163_215)"/>
<g filter="url(#filter7_d_163_215)">
<path fill-rule="evenodd" clip-rule="evenodd" d="M305.828 666.242L284.353 720.863L268.103 724.086L211.202 689.737L208.856 677.095L243.566 628.92L285.366 629.228L305.828 666.242Z" fill="#FDF540"/>
<path fill-rule="evenodd" clip-rule="evenodd" d="M305.828 666.242L315.437 666.135L289.46 724.731L284.353 720.863L305.828 666.242Z" fill="#E58500"/>
<path fill-rule="evenodd" clip-rule="evenodd" d="M305.828 666.242L315.437 666.136L290.977 622.226L285.366 629.228L305.828 666.242Z" fill="#D34A00"/>
<path fill-rule="evenodd" clip-rule="evenodd" d="M285.366 629.228L290.977 622.226L240.799 621.894L243.566 628.92L285.366 629.228Z" fill="#E67300"/>
<path fill-rule="evenodd" clip-rule="evenodd" d="M240.799 621.894L243.566 628.92L208.856 677.095L200.781 671.894L240.799 621.894Z" fill="#FFDC12"/>
<path fill-rule="evenodd" clip-rule="evenodd" d="M284.353 720.863L289.46 724.731L267.736 731.165L268.104 724.086L284.353 720.863Z" fill="#EAA705"/>
<path fill-rule="evenodd" clip-rule="evenodd" d="M208.856 677.095L211.202 689.737L206.232 694.53L200.781 671.894L208.856 677.095Z" fill="#FFFFAD"/>
<path fill-rule="evenodd" clip-rule="evenodd" d="M268.103 724.086L267.736 731.165L206.232 694.53L211.202 689.737L268.103 724.086Z" fill="#FFFCAD"/>
</g>
<path fill-rule="evenodd" clip-rule="evenodd" d="M308.121 27.0615L308.257 26.9549C341.036 18.2109 375.467 13.5189 411 13.5189C415.674 13.5189 420.325 13.6019 424.957 13.7618L426.426 18.4004L430.396 13.9869C444.465 14.6682 458.34 16.0782 471.989 18.1872L470.413 22.9146L475.395 18.7263C488.399 20.8471 501.195 23.6018 513.742 26.9549L513.879 27.0615L463.079 216.652H463.026C446.432 212.221 428.998 209.845 411.006 209.845C405.822 209.845 400.68 210.041 395.597 210.432L389.436 208.264L385.579 211.445C383.719 211.682 381.865 211.943 380.017 212.227L377.066 210.414L373.79 213.293C372.12 213.607 370.449 213.939 368.79 214.294L365.769 211.919L364.786 215.195C362.837 215.651 360.905 216.137 358.98 216.652H358.927L308.127 27.0615H308.121Z" fill="url(#paint7_linear_163_215)"/>
<g filter="url(#filter8_d_163_215)">
<path fill-rule="evenodd" clip-rule="evenodd" d="M374.46 137.369L365.751 79.3244L378.216 68.4121L444.661 69.7036L453.014 79.4843L447.048 138.56L410.686 159.194L374.46 137.369Z" fill="#5ABFB2"/>
<path fill-rule="evenodd" clip-rule="evenodd" d="M374.46 137.369L366.196 142.263L359.395 78.5305L365.751 79.3244L374.46 137.369Z" fill="#12523F"/>
<path fill-rule="evenodd" clip-rule="evenodd" d="M374.46 137.369L366.196 142.263L409.329 168.062L410.686 159.194L374.46 137.369Z" fill="#10382A"/>
<path fill-rule="evenodd" clip-rule="evenodd" d="M410.686 159.194L409.329 168.062L452.955 143.258L447.048 138.56L410.686 159.194Z" fill="#1A6A5D"/>
<path fill-rule="evenodd" clip-rule="evenodd" d="M452.955 143.258L447.048 138.56L453.014 79.4844L462.611 79.9465L452.955 143.258Z" fill="#0C8777"/>
<path fill-rule="evenodd" clip-rule="evenodd" d="M365.751 79.3244L359.395 78.5306L374.987 62.1029L378.216 68.4121L365.751 79.3244Z" fill="#01625D"/>
<path fill-rule="evenodd" clip-rule="evenodd" d="M453.014 79.4843L444.661 69.7035L446.569 63.0685L462.611 79.9464L453.014 79.4843Z" fill="#64DCCA"/>
<path fill-rule="evenodd" clip-rule="evenodd" d="M378.216 68.4121L374.987 62.1029L446.569 63.0685L444.661 69.7036L378.216 68.4121Z" fill="#45B5A5"/>
</g>
<path fill-rule="evenodd" clip-rule="evenodd" d="M794.944 513.879L794.974 514.05C786.159 546.811 773.007 578.973 755.241 609.743C752.906 613.79 750.507 617.776 748.049 621.71L743.297 620.662L745.134 626.307C737.51 638.15 729.346 649.465 720.703 660.229L717.397 656.497L718.535 662.907C710.193 673.108 701.414 682.812 692.237 692.006L692.077 692.065L553.286 553.274L553.316 553.227C565.448 541.071 576.224 527.161 585.217 511.58C587.812 507.09 590.206 502.54 592.415 497.943L597.374 493.689L596.544 488.76C597.273 487.03 597.972 485.295 598.647 483.553L601.692 481.906L600.833 477.629C601.396 476.023 601.941 474.412 602.463 472.801L606.029 471.373L603.683 468.885C604.258 466.971 604.809 465.052 605.324 463.127L605.354 463.079L794.944 513.879Z" fill="url(#paint8_linear_163_215)"/>
<g filter="url(#filter9_d_163_215)">
<path fill-rule="evenodd" clip-rule="evenodd" d="M666.242 516.171L720.863 537.652L724.086 553.902L689.737 610.798L677.095 613.144L628.92 578.44L629.228 536.633L666.242 516.171Z" fill="#5ABFB2"/>
<path fill-rule="evenodd" clip-rule="evenodd" d="M666.242 516.171L666.136 506.568L724.731 532.54L720.863 537.652L666.242 516.171Z" fill="#12523F"/>
<path fill-rule="evenodd" clip-rule="evenodd" d="M666.242 516.171L666.135 506.568L622.226 531.023L629.228 536.633L666.242 516.171Z" fill="#10382A"/>
<path fill-rule="evenodd" clip-rule="evenodd" d="M629.228 536.633L622.226 531.023L621.894 581.201L628.92 578.44L629.228 536.633Z" fill="#1A6A5D"/>
<path fill-rule="evenodd" clip-rule="evenodd" d="M621.894 581.201L628.92 578.44L677.095 613.144L671.894 621.218L621.894 581.201Z" fill="#0C8777"/>
<path fill-rule="evenodd" clip-rule="evenodd" d="M720.863 537.652L724.731 532.54L731.165 554.264L724.086 553.902L720.863 537.652Z" fill="#01625D"/>
<path fill-rule="evenodd" clip-rule="evenodd" d="M677.095 613.144L689.737 610.798L694.53 615.768L671.894 621.218L677.095 613.144Z" fill="#64DCCA"/>
<path fill-rule="evenodd" clip-rule="evenodd" d="M724.086 553.902L731.165 554.264L694.53 615.768L689.737 610.798L724.086 553.902Z" fill="#45B5A5"/>
</g>
<path fill-rule="evenodd" clip-rule="evenodd" d="M129.934 692.066L129.774 692.006C105.811 667.996 84.5376 640.52 66.7711 609.749C64.437 605.703 62.1799 601.633 59.9998 597.54L63.2818 593.95L57.4761 592.718C51.0306 580.194 45.3138 567.469 40.3197 554.596L45.2012 553.594L39.0816 551.373C34.4193 539.051 30.4027 526.592 27.0319 514.045L27.0615 513.873L216.652 463.073L216.682 463.121C221.143 479.708 227.801 495.994 236.8 511.574C239.395 516.065 242.132 520.419 245.011 524.625L246.214 531.047L250.9 532.795C252.037 534.288 253.186 535.763 254.359 537.22L254.265 540.68L258.394 542.078C259.502 543.369 260.627 544.649 261.759 545.905L261.208 549.708L264.537 548.92C265.906 550.378 267.298 551.811 268.702 553.221L268.731 553.269L129.94 692.06L129.934 692.066Z" fill="url(#paint9_linear_163_215)"/>
<g filter="url(#filter10_d_163_215)">
<path fill-rule="evenodd" clip-rule="evenodd" d="M192.298 579.465L146.386 616.023L130.705 610.691L98.6016 552.498L102.891 540.372L157.037 516.006L193.086 537.179L192.298 579.465Z" fill="#5ABFB2"/>
<path fill-rule="evenodd" clip-rule="evenodd" d="M192.298 579.465L200.669 584.175L148.88 621.93L146.386 616.023L192.298 579.465Z" fill="#12523F"/>
<path fill-rule="evenodd" clip-rule="evenodd" d="M192.298 579.465L200.669 584.175L201.445 533.914L193.086 537.179L192.298 579.465Z" fill="#10382A"/>
<path fill-rule="evenodd" clip-rule="evenodd" d="M193.086 537.179L201.445 533.914L158.151 508.541L157.037 516.006L193.086 537.179Z" fill="#1A6A5D"/>
<path fill-rule="evenodd" clip-rule="evenodd" d="M158.151 508.541L157.037 516.006L102.891 540.372L98.4949 531.829L158.151 508.541Z" fill="#0C8777"/>
<path fill-rule="evenodd" clip-rule="evenodd" d="M146.386 616.023L148.88 621.929L126.854 616.639L130.704 610.691L146.386 616.023Z" fill="#01625D"/>
<path fill-rule="evenodd" clip-rule="evenodd" d="M102.891 540.372L98.6015 552.498L91.8954 554.163L98.4949 531.829L102.891 540.372Z" fill="#64DCCA"/>
<path fill-rule="evenodd" clip-rule="evenodd" d="M130.705 610.691L126.854 616.639L91.8954 554.163L98.6015 552.498L130.705 610.691Z" fill="#45B5A5"/>
</g>
<path fill-rule="evenodd" clip-rule="evenodd" d="M513.879 27.0615L514.051 27.0319C546.811 35.847 578.973 48.9986 609.743 66.7652C613.79 69.0993 617.777 71.4986 621.71 73.9571L620.662 78.7082L626.307 76.8718C638.15 84.4961 649.465 92.6596 660.229 101.303L656.497 104.609L662.907 103.471C673.108 111.812 682.812 120.592 692.006 129.769L692.065 129.928L553.274 268.72L553.227 268.69C541.071 256.557 527.161 245.781 511.58 236.788C507.09 234.194 502.54 231.8 497.943 229.59L493.689 224.632L488.76 225.461C487.031 224.733 485.295 224.034 483.553 223.358L481.906 220.313L477.629 221.172C476.023 220.609 474.412 220.064 472.801 219.543L471.373 215.977L468.885 218.323C466.971 217.748 465.052 217.197 463.127 216.682L463.079 216.652L513.879 27.0615Z" fill="url(#paint10_linear_163_215)"/>
<g filter="url(#filter11_d_163_215)">
<path fill-rule="evenodd" clip-rule="evenodd" d="M516.172 155.758L537.652 101.137L553.902 97.9144L610.798 132.263L613.144 144.905L578.44 193.086L536.634 192.772L516.172 155.758Z" fill="#F7C3D9"/>
<path fill-rule="evenodd" clip-rule="evenodd" d="M516.171 155.758L506.568 155.864L532.54 97.2687L537.652 101.137L516.171 155.758Z" fill="#AC3493"/>
<path fill-rule="evenodd" clip-rule="evenodd" d="M516.171 155.758L506.568 155.864L531.023 199.774L536.634 192.772L516.171 155.758Z" fill="#7B417B"/>
<path fill-rule="evenodd" clip-rule="evenodd" d="M536.634 192.772L531.023 199.774L581.201 200.106L578.44 193.086L536.634 192.772Z" fill="#9C3694"/>
<path fill-rule="evenodd" clip-rule="evenodd" d="M581.201 200.106L578.44 193.086L613.144 144.905L621.219 150.106L581.201 200.106Z" fill="#C8509F"/>
<path fill-rule="evenodd" clip-rule="evenodd" d="M537.652 101.137L532.54 97.2687L554.264 90.8409L553.902 97.9144L537.652 101.137Z" fill="#D981B1"/>
<path fill-rule="evenodd" clip-rule="evenodd" d="M613.144 144.905L610.798 132.263L615.768 127.47L621.219 150.106L613.144 144.905Z" fill="#EED5E6"/>
<path fill-rule="evenodd" clip-rule="evenodd" d="M553.902 97.9144L554.264 90.8409L615.768 127.47L610.798 132.263L553.902 97.9144Z" fill="#E8BED5"/>
</g>
<path fill-rule="evenodd" clip-rule="evenodd" d="M692.065 692.066L692.006 692.226C667.996 716.189 640.519 737.462 609.749 755.229C605.703 757.563 601.633 759.82 597.54 762L593.95 758.718L592.717 764.524C580.194 770.969 567.469 776.686 554.596 781.68L553.594 776.799L551.373 782.918C539.051 787.581 526.592 791.597 514.045 794.968L513.873 794.938L463.073 605.348L463.121 605.318C479.708 600.857 495.994 594.199 511.574 585.2C516.065 582.605 520.419 579.868 524.625 576.989L531.047 575.786L532.795 571.1C534.288 569.963 535.763 568.814 537.22 567.641L540.68 567.735L542.078 563.606C543.369 562.498 544.649 561.373 545.905 560.241L549.708 560.792L548.92 557.463C550.378 556.094 551.811 554.702 553.221 553.298L553.269 553.269L692.06 692.06L692.065 692.066Z" fill="url(#paint11_linear_163_215)"/>
<g filter="url(#filter12_d_163_215)">
<path fill-rule="evenodd" clip-rule="evenodd" d="M579.465 629.702L616.023 675.614L610.691 691.295L552.498 723.398L540.372 719.109L516.006 664.962L537.179 628.914L579.465 629.702Z" fill="#F7C3D9"/>
<path fill-rule="evenodd" clip-rule="evenodd" d="M579.465 629.702L584.175 621.331L621.93 673.12L616.023 675.614L579.465 629.702Z" fill="#AC3493"/>
<path fill-rule="evenodd" clip-rule="evenodd" d="M579.465 629.702L584.175 621.331L533.914 620.555L537.179 628.914L579.465 629.702Z" fill="#7B417B"/>
<path fill-rule="evenodd" clip-rule="evenodd" d="M537.179 628.914L533.914 620.555L508.541 663.849L516.006 664.962L537.179 628.914Z" fill="#9C3694"/>
<path fill-rule="evenodd" clip-rule="evenodd" d="M508.541 663.849L516.006 664.963L540.372 719.109L531.829 723.505L508.541 663.849Z" fill="#C8509F"/>
<path fill-rule="evenodd" clip-rule="evenodd" d="M616.023 675.614L621.93 673.12L616.639 695.152L610.691 691.295L616.023 675.614Z" fill="#D981B1"/>
<path fill-rule="evenodd" clip-rule="evenodd" d="M540.372 719.109L552.498 723.398L554.163 730.105L531.829 723.505L540.372 719.109Z" fill="#EED5E6"/>
<path fill-rule="evenodd" clip-rule="evenodd" d="M610.691 691.295L616.639 695.152L554.163 730.105L552.498 723.398L610.691 691.295Z" fill="#E8BED5"/>
</g>
<path fill-rule="evenodd" clip-rule="evenodd" d="M27.0615 513.879L26.9549 513.742C18.2109 480.964 13.5189 446.533 13.5189 411C13.5189 406.326 13.6019 401.675 13.7618 397.043L18.4004 395.573L13.9869 391.604C14.6682 377.534 16.0782 363.66 18.1872 350.011L22.9146 351.587L18.7263 346.604C20.8471 333.601 23.6018 320.805 26.9549 308.257L27.0615 308.121L216.652 358.921V358.974C212.221 375.568 209.845 393.002 209.845 410.994C209.845 416.178 210.041 421.32 210.432 426.403L208.264 432.564L211.445 436.42C211.682 438.281 211.943 440.135 212.227 441.983L210.414 444.933L213.293 448.21C213.607 449.88 213.939 451.551 214.294 453.21L211.919 456.231L215.195 457.214C215.651 459.163 216.137 461.095 216.652 463.02V463.073L27.0615 513.873V513.879Z" fill="url(#paint12_linear_163_215)"/>
<g filter="url(#filter13_d_163_215)">
<path fill-rule="evenodd" clip-rule="evenodd" d="M137.369 447.54L79.3244 456.249L68.4121 443.79L69.7036 377.339L79.4843 368.986L138.56 374.957L159.194 411.314L137.369 447.54Z" fill="#F7C3D9"/>
<path fill-rule="evenodd" clip-rule="evenodd" d="M137.369 447.54L142.263 455.804L78.5305 462.611L79.3244 456.249L137.369 447.54Z" fill="#AC3493"/>
<path fill-rule="evenodd" clip-rule="evenodd" d="M137.369 447.54L142.263 455.804L168.062 412.671L159.194 411.314L137.369 447.54Z" fill="#7B417B"/>
<path fill-rule="evenodd" clip-rule="evenodd" d="M159.194 411.314L168.062 412.671L143.258 369.051L138.56 374.957L159.194 411.314Z" fill="#9C3694"/>
<path fill-rule="evenodd" clip-rule="evenodd" d="M143.258 369.051L138.56 374.957L79.4844 368.986L79.9465 359.395L143.258 369.051Z" fill="#C8509F"/>
<path fill-rule="evenodd" clip-rule="evenodd" d="M79.3244 456.249L78.5306 462.611L62.1029 447.013L68.4121 443.79L79.3244 456.249Z" fill="#D981B1"/>
<path fill-rule="evenodd" clip-rule="evenodd" d="M79.4843 368.986L69.7035 377.339L63.0685 375.431L79.9464 359.395L79.4843 368.986Z" fill="#EED5E6"/>
<path fill-rule="evenodd" clip-rule="evenodd" d="M68.4121 443.79L62.1029 447.013L63.0685 375.431L69.7036 377.339L68.4121 443.79Z" fill="#E8BED5"/>
</g>
</g>
<g filter="url(#filter14_i_163_215)">
<path d="M381.8 115.76V113.09H385.88V114.47L386.93 115.52H392.03L393.08 114.47V109.64L391.37 111.35H384.74L381.5 108.11V101.24L384.74 98H393.92L397.16 101.24V115.76L393.92 119H385.04L381.8 115.76ZM391.13 107.87L393.08 105.92V102.53L392.03 101.48H386.63L385.58 102.53V106.82L386.63 107.87H391.13ZM400.459 115.52V101.48L403.939 98H413.239L416.719 101.48V115.52L413.239 119H403.939L400.459 115.52ZM411.319 115.52L412.639 114.2V102.8L411.319 101.48H405.859L404.539 102.8V114.2L405.859 115.52H411.319ZM419.579 106.64V100.4L421.979 98H427.199L429.599 100.4V106.64L427.199 109.04H421.979L419.579 106.64ZM435.209 98H439.289L427.799 119H423.719L435.209 98ZM425.459 106.04L426.119 105.38V101.66L425.459 101H423.719L423.059 101.66V105.38L423.719 106.04H425.459ZM433.409 116.6V110.36L435.809 107.96H441.029L443.429 110.36V116.6L441.029 119H435.809L433.409 116.6ZM439.289 116L439.949 115.34V111.62L439.289 110.96H437.549L436.889 111.62V115.34L437.549 116H439.289Z" fill="#1A6A5D"/>
</g>
<g filter="url(#filter15_i_163_215)">
<path d="M689.574 542.398L689.812 537.305L693.06 539.18L692.936 545.274L691.301 548.106L673.114 537.606L675.154 534.073L689.574 542.398ZM674.255 542.589L686.414 549.609L687.688 554.363L683.038 562.417L678.284 563.691L666.125 556.671L664.852 551.917L669.502 543.863L674.255 542.589ZM668.825 551.994L669.309 553.798L679.181 559.498L680.984 559.014L683.714 554.286L683.231 552.483L673.359 546.783L671.555 547.266L668.825 551.994ZM672.386 563.588L677.79 566.708L678.668 569.986L676.058 574.507L672.78 575.386L667.376 572.266L666.497 568.987L669.107 564.466L672.386 563.588ZM672.053 581.444L670.013 584.977L657.572 564.527L659.612 560.993L672.053 581.444ZM669.965 568.98L670.207 569.882L673.428 571.742L674.33 571.5L675.2 569.993L674.958 569.092L671.737 567.232L670.835 567.473L669.965 568.98ZM656.845 570.585L662.249 573.705L663.127 576.984L660.517 581.504L657.239 582.383L651.835 579.263L650.957 575.984L653.567 571.464L656.845 570.585ZM654.425 575.977L654.666 576.879L657.888 578.739L658.789 578.497L659.659 576.99L659.418 576.089L656.196 574.229L655.295 574.47L654.425 575.977Z" fill="#1A6A5D"/>
</g>
<g filter="url(#filter16_i_163_215)">
<path d="M154.921 587.482L159.213 590.235L155.965 592.11L150.749 588.955L149.114 586.123L167.301 575.623L169.341 579.157L154.921 587.482ZM162.414 574.12L150.255 581.14L145.502 579.866L140.852 571.812L142.125 567.059L154.284 560.039L159.038 561.312L163.688 569.366L162.414 574.12ZM156.984 564.715L155.181 564.232L145.309 569.932L144.825 571.735L147.555 576.464L149.359 576.947L159.231 571.247L159.714 569.444L156.984 564.715ZM145.164 562.001L139.76 565.121L136.482 564.243L133.872 559.722L134.75 556.444L140.154 553.324L143.432 554.202L146.042 558.723L145.164 562.001ZM129.867 552.786L127.827 549.252L151.758 548.703L153.798 552.236L129.867 552.786ZM141.704 557.209L140.803 556.968L137.581 558.828L137.34 559.729L138.21 561.236L139.111 561.478L142.333 559.618L142.574 558.716L141.704 557.209ZM146.875 545.044L141.471 548.164L138.192 547.286L135.582 542.765L136.461 539.487L141.865 536.367L145.143 537.245L147.753 541.766L146.875 545.044ZM143.415 540.252L142.513 540.011L139.292 541.871L139.05 542.772L139.92 544.279L140.822 544.521L144.043 542.661L144.285 541.759L143.415 540.252Z" fill="#1A6A5D"/>
</g>
<g filter="url(#filter17_i_163_215)">
<path d="M538.398 126.201L533.305 125.963L535.18 122.715L541.274 122.839L544.106 124.474L533.606 142.661L530.073 140.621L538.398 126.201ZM538.729 140.318L552.987 137.223L554.052 135.378L553.689 134.026L549.48 131.596L548.128 131.958L547.063 133.803L543.53 131.763L545.21 128.853L549.636 127.667L557.014 131.927L558.2 136.353L555.92 140.302L541.957 143.187L541.807 143.446L551.134 148.831L549.424 151.793L536.434 144.293L538.729 140.318ZM553.508 150.133L560.528 137.974L565.282 136.7L573.336 141.35L574.61 146.104L567.59 158.263L562.836 159.537L554.782 154.887L553.508 150.133ZM562.913 155.563L564.716 155.08L570.416 145.207L569.933 143.404L565.205 140.674L563.401 141.157L557.701 151.03L558.185 152.833L562.913 155.563ZM574.507 152.003L577.627 146.599L580.905 145.72L585.426 148.33L586.304 151.609L583.184 157.013L579.906 157.891L575.385 155.281L574.507 152.003ZM592.363 152.335L595.896 154.375L575.445 166.817L571.912 164.777L592.363 152.335ZM579.899 154.423L580.8 154.181L582.66 150.96L582.419 150.058L580.912 149.188L580.01 149.43L578.15 152.651L578.392 153.553L579.899 154.423ZM581.504 167.543L584.624 162.139L587.902 161.261L592.423 163.871L593.301 167.149L590.181 172.553L586.903 173.432L582.382 170.822L581.504 167.543ZM586.896 169.964L587.798 169.722L589.658 166.5L589.416 165.599L587.909 164.729L587.008 164.97L585.148 168.192L585.389 169.094L586.896 169.964Z" fill="#7B417B"/>
</g>
<g filter="url(#filter18_i_163_215)">
<path d="M586.207 651.354L581.759 665.25L582.824 667.095L584.177 667.457L588.386 665.027L588.748 663.675L587.683 661.83L591.216 659.79L592.896 662.7L591.71 667.126L584.332 671.386L579.906 670.2L577.626 666.251L582.109 652.716L581.959 652.456L572.632 657.841L570.922 654.879L583.912 647.379L586.207 651.354ZM570.318 659.246L577.338 671.405L576.064 676.159L568.01 680.809L563.257 679.535L556.237 667.376L557.51 662.623L565.564 657.973L570.318 659.246ZM560.913 664.676L560.43 666.479L566.13 676.352L567.933 676.835L572.662 674.105L573.145 672.302L567.445 662.429L565.642 661.946L560.913 664.676ZM558.199 676.497L561.319 681.901L560.441 685.179L555.92 687.789L552.642 686.911L549.522 681.507L550.4 678.228L554.921 675.618L558.199 676.497ZM548.983 691.794L545.45 693.834L544.901 669.903L548.434 667.863L548.983 691.794ZM553.407 679.956L553.166 680.858L555.026 684.08L555.927 684.321L557.434 683.451L557.676 682.55L555.816 679.328L554.914 679.086L553.407 679.956ZM541.242 674.786L544.362 680.19L543.484 683.469L538.963 686.079L535.685 685.2L532.565 679.796L533.443 676.518L537.964 673.908L541.242 674.786ZM536.45 678.246L536.208 679.147L538.068 682.369L538.97 682.611L540.477 681.741L540.718 680.839L538.858 677.617L537.957 677.376L536.45 678.246Z" fill="#7B417B"/>
</g>
<g filter="url(#filter19_i_163_215)">
<path d="M114.52 441.35L100.48 441.35L97 437.87L97 428.57L100.48 425.09L114.52 425.09L118 428.57L118 437.87L114.52 441.35ZM114.52 430.49L113.2 429.17L101.8 429.17L100.48 430.49L100.48 435.95L101.8 437.27L113.2 437.27L114.52 435.95L114.52 430.49ZM114.52 421.78L100.48 421.78L97 418.3L97 409L100.48 405.52L114.52 405.52L118 409L118 418.3L114.52 421.78ZM114.52 410.92L113.2 409.6L101.8 409.6L100.48 410.92L100.48 416.38L101.8 417.7L113.2 417.7L114.52 416.38L114.52 410.92ZM105.64 402.659L99.4 402.659L97 400.259L97 395.039L99.4 392.639L105.64 392.639L108.04 395.039L108.04 400.259L105.64 402.659ZM97 387.029L97 382.949L118 394.439L118 398.519L97 387.029ZM105.04 396.779L104.38 396.119L100.66 396.119L100 396.779L100 398.519L100.66 399.179L104.38 399.179L105.04 398.519L105.04 396.779ZM115.6 388.829L109.36 388.829L106.96 386.429L106.96 381.209L109.36 378.809L115.6 378.809L118 381.209L118 386.429L115.6 388.829ZM115 382.949L114.34 382.289L110.62 382.289L109.96 382.949L109.96 384.689L110.62 385.349L114.34 385.349L115 384.689L115 382.949Z" fill="#7B417B"/>
</g>
<g filter="url(#filter20_i_163_215)">
<path d="M668.854 224.248L664.562 221.495L667.81 219.62L673.026 222.774L674.661 225.606L656.474 236.106L654.434 232.573L668.854 224.248ZM661.003 237.47L663.965 235.76L666.005 239.293L664.108 240.388L663.746 241.74L666.416 246.365L667.768 246.727L671.873 244.357L672.235 243.005L667.18 234.249L676.533 228.849L683.913 241.632L680.9 243.372L675.53 234.071L672.204 235.991L676.149 242.824L674.952 247.291L668.743 250.876L664.317 249.69L659.817 241.895L661.003 237.47ZM670.457 253.365L682.616 246.345L687.37 247.619L692.02 255.673L690.746 260.427L678.587 267.447L673.833 266.173L669.183 258.119L670.457 253.365ZM675.887 262.77L677.69 263.253L687.563 257.553L688.046 255.75L685.316 251.022L683.513 250.539L673.64 256.239L673.157 258.042L675.887 262.77ZM687.708 265.484L693.112 262.364L696.39 263.242L699 267.763L698.122 271.041L692.718 274.161L689.439 273.283L686.829 268.762L687.708 265.484ZM703.005 274.7L705.045 278.233L681.114 278.783L679.074 275.249L703.005 274.7ZM691.167 270.276L692.069 270.518L695.291 268.658L695.532 267.756L694.662 266.249L693.761 266.008L690.539 267.868L690.297 268.769L691.167 270.276ZM685.997 282.441L691.401 279.321L694.68 280.2L697.29 284.72L696.411 287.999L691.007 291.119L687.729 290.24L685.119 285.72L685.997 282.441ZM689.457 287.233L690.358 287.475L693.58 285.615L693.821 284.713L692.951 283.206L692.05 282.965L688.828 284.825L688.587 285.726L689.457 287.233Z" fill="#4A5859"/>
</g>
<g filter="url(#filter21_i_163_215)">
<path d="M440.95 707.24L440.95 710.54L436.87 710.54L436.87 708.47L435.88 707.48L430.48 707.48L429.49 708.47L429.49 711.86L430.45 712.82L436.45 712.82L436.45 716.3L430.45 716.3L429.49 717.26L429.49 720.53L430.48 721.52L435.7 721.52L436.69 720.53L436.69 718.46L440.77 718.46L440.77 721.76L437.53 725L428.65 725L425.41 721.76L425.41 716.06L426.94 714.56L425.41 713.03L425.41 707.24L428.65 704L437.71 704L440.95 707.24ZM422.274 707.48L422.274 721.52L418.794 725L409.494 725L406.014 721.52L406.014 707.48L409.494 704L418.794 704L422.274 707.48ZM411.414 707.48L410.094 708.8L410.094 720.2L411.414 721.52L416.874 721.52L418.194 720.2L418.194 708.8L416.874 707.48L411.414 707.48ZM403.154 716.36L403.154 722.6L400.754 725L395.534 725L393.134 722.6L393.134 716.36L395.534 713.96L400.754 713.96L403.154 716.36ZM387.524 725L383.444 725L394.934 704L399.014 704L387.524 725ZM397.274 716.96L396.614 717.62L396.614 721.34L397.274 722L399.014 722L399.674 721.34L399.674 717.62L399.014 716.96L397.274 716.96ZM389.324 706.4L389.324 712.64L386.924 715.04L381.704 715.04L379.304 712.64L379.304 706.4L381.704 704L386.924 704L389.324 706.4ZM383.444 707L382.784 707.66L382.784 711.38L383.444 712.04L385.184 712.04L385.844 711.38L385.844 707.66L385.184 707L383.444 707Z" fill="#4A5859"/>
</g>
<g filter="url(#filter22_i_163_215)">
<path d="M138.7 287.896L135.842 286.246L137.882 282.713L139.675 283.748L141.027 283.386L143.727 278.709L143.365 277.357L140.429 275.662L139.117 276.013L136.117 281.209L133.104 279.469L136.104 274.273L135.752 272.962L132.92 271.327L131.568 271.689L128.958 276.21L129.32 277.562L131.113 278.597L129.073 282.13L126.215 280.48L125.029 276.054L129.469 268.364L133.895 267.178L138.831 270.028L139.366 272.103L141.456 271.543L146.47 274.438L147.656 278.864L143.126 286.71L138.7 287.896ZM147.83 271.602L135.671 264.582L134.397 259.828L139.047 251.774L143.801 250.501L155.96 257.521L157.234 262.274L152.584 270.328L147.83 271.602ZM153.26 262.197L152.777 260.394L142.904 254.694L141.101 255.177L138.371 259.906L138.854 261.709L148.727 267.409L150.53 266.926L153.26 262.197ZM149.7 250.604L144.296 247.484L143.417 244.205L146.027 239.684L149.306 238.806L154.71 241.926L155.588 245.204L152.978 249.725L149.7 250.604ZM150.032 232.748L152.072 229.214L164.514 249.665L162.474 253.198L150.032 232.748ZM152.12 245.211L151.879 244.31L148.657 242.45L147.756 242.691L146.886 244.198L147.127 245.1L150.349 246.96L151.25 246.718L152.12 245.211ZM165.241 243.606L159.837 240.486L158.958 237.208L161.568 232.687L164.847 231.809L170.251 234.929L171.129 238.207L168.519 242.728L165.241 243.606ZM167.661 238.214L167.419 237.313L164.198 235.453L163.296 235.694L162.426 237.201L162.668 238.103L165.889 239.963L166.791 239.721L167.661 238.214Z" fill="#4A5859"/>
</g>
<g filter="url(#filter23_i_163_215)">
<path d="M726.65 376.28L724.31 371.75L728.06 371.75L731 377.09L731 380.36L710 380.36L710 376.28L726.65 376.28ZM713.24 383.955L718.94 383.955L720.83 385.845L722.42 384.255L727.76 384.255L731 387.495L731 396.555L727.76 399.795L722.42 399.795L720.83 398.205L718.94 400.095L713.24 400.095L710 396.855L710 387.195L713.24 383.955ZM722.36 394.665L723.41 395.715L726.47 395.715L727.52 394.665L727.52 389.385L726.47 388.335L723.41 388.335L722.36 389.385L722.36 394.665ZM713.48 394.965L714.53 396.015L717.89 396.015L718.94 394.965L718.94 389.085L717.89 388.035L714.53 388.035L713.48 389.085L713.48 394.965ZM713.48 403.236L727.52 403.236L731 406.716L731 416.016L727.52 419.496L713.48 419.496L710 416.016L710 406.716L713.48 403.236ZM713.48 414.096L714.8 415.416L726.2 415.416L727.52 414.096L727.52 408.636L726.2 407.316L714.8 407.316L713.48 408.636L713.48 414.096ZM722.36 422.356L728.6 422.356L731 424.756L731 429.976L728.6 432.376L722.36 432.376L719.96 429.976L719.96 424.756L722.36 422.356ZM731 437.986L731 442.066L710 430.576L710 426.496L731 437.986ZM722.96 428.236L723.62 428.896L727.34 428.896L728 428.236L728 426.496L727.34 425.836L723.62 425.836L722.96 426.496L722.96 428.236ZM712.4 436.186L718.64 436.186L721.04 438.586L721.04 443.806L718.64 446.206L712.4 446.206L710 443.806L710 438.586L712.4 436.186ZM713 442.066L713.66 442.726L717.38 442.726L718.04 442.066L718.04 440.326L717.38 439.666L713.66 439.666L713 440.326L713 442.066Z" fill="#EAA705"/>
</g>
<g filter="url(#filter24_i_163_215)">
<path d="M279.434 676.952L288.216 682.022L286.161 685.581L271.586 692.166L267.351 689.721L274.161 677.926L271.953 676.651L273.693 673.637L275.901 674.912L277.851 671.534L281.384 673.574L279.434 676.952ZM277.598 679.772L273.008 687.722L273.112 687.782L282.87 683.3L283.08 682.937L277.598 679.772ZM272.211 672.297L265.191 684.456L260.437 685.729L252.383 681.079L251.11 676.326L258.13 664.167L262.883 662.893L270.937 667.543L272.211 672.297ZM262.806 666.867L261.003 667.35L255.303 677.222L255.786 679.026L260.515 681.756L262.318 681.272L268.018 671.4L267.535 669.597L262.806 666.867ZM251.213 670.427L248.093 675.831L244.814 676.709L240.293 674.099L239.415 670.821L242.535 665.417L245.813 664.538L250.334 667.148L251.213 670.427ZM233.357 670.094L229.823 668.054L250.274 655.613L253.807 657.653L233.357 670.094ZM245.82 668.006L244.919 668.248L243.059 671.469L243.3 672.371L244.807 673.241L245.709 672.999L247.569 669.778L247.327 668.876L245.82 668.006ZM244.215 654.886L241.095 660.29L237.817 661.169L233.296 658.559L232.418 655.28L235.538 649.876L238.816 648.998L243.337 651.608L244.215 654.886ZM238.823 652.466L237.922 652.707L236.062 655.929L236.303 656.83L237.81 657.7L238.712 657.459L240.572 654.237L240.33 653.336L238.823 652.466Z" fill="#EAA705"/>
</g>
<g filter="url(#filter25_i_163_215)">
<path d="M235.809 170.35L228.549 157.775L229.735 153.349L237.581 148.819L242.007 150.005L243.507 152.603L239.974 154.643L239.119 153.162L237.684 152.778L233.112 155.418L232.727 156.852L235.202 161.139L235.88 158.773L241.57 155.488L245.996 156.674L249.371 162.52L248.185 166.946L240.235 171.536L235.809 170.35ZM244.808 164.877L245.193 163.443L243.108 159.831L241.673 159.447L237.984 161.577L237.212 164.621L238.697 167.193L240.132 167.577L244.808 164.877ZM251.851 160.811L244.831 148.652L246.105 143.898L254.159 139.248L258.912 140.522L265.932 152.681L264.659 157.435L256.605 162.085L251.851 160.811ZM261.256 155.381L261.739 153.578L256.039 143.705L254.236 143.222L249.507 145.952L249.024 147.755L254.724 157.628L256.527 158.111L261.256 155.381ZM263.969 143.56L260.849 138.156L261.728 134.878L266.249 132.268L269.527 133.146L272.647 138.55L271.769 141.829L267.248 144.439L263.969 143.56ZM273.185 128.263L276.719 126.223L277.268 150.155L273.735 152.195L273.185 128.263ZM268.762 140.101L269.003 139.199L267.143 135.978L266.242 135.736L264.735 136.606L264.493 137.508L266.353 140.729L267.255 140.971L268.762 140.101ZM280.927 145.271L277.807 139.867L278.685 136.589L283.206 133.979L286.484 134.857L289.604 140.261L288.726 143.54L284.205 146.15L280.927 145.271ZM285.719 141.811L285.96 140.91L284.1 137.688L283.199 137.447L281.692 138.317L281.45 139.218L283.31 142.44L284.212 142.681L285.719 141.811Z" fill="#EAA705"/>
</g>
</g>
<defs>
<filter id="filter0_d_163_215" x="-20" y="-16" width="862" height="862" filterUnits="userSpaceOnUse" color-interpolation-filters="sRGB">
<feFlood flood-opacity="0" result="BackgroundImageFix"/>
<feColorMatrix in="SourceAlpha" type="matrix" values="0 0 0 0 0 0 0 0 0 0 0 0 0 0 0 0 0 0 127 0" result="hardAlpha"/>
<feOffset dy="4"/>
<feGaussianBlur stdDeviation="10"/>
<feComposite in2="hardAlpha" operator="out"/>
<feColorMatrix type="matrix" values="0 0 0 0 0 0 0 0 0 0 0 0 0 0 0 0 0 0 0.5 0"/>
<feBlend mode="normal" in2="BackgroundImageFix" result="effect1_dropShadow_163_215"/>
<feBlend mode="normal" in="SourceGraphic" in2="effect1_dropShadow_163_215" result="shape"/>
</filter>
<filter id="filter1_d_163_215" x="9.51892" y="13.5189" width="802.968" height="802.968" filterUnits="userSpaceOnUse" color-interpolation-filters="sRGB">
<feFlood flood-opacity="0" result="BackgroundImageFix"/>
<feColorMatrix in="SourceAlpha" type="matrix" values="0 0 0 0 0 0 0 0 0 0 0 0 0 0 0 0 0 0 127 0" result="hardAlpha"/>
<feOffset dy="4"/>
<feGaussianBlur stdDeviation="2"/>
<feComposite in2="hardAlpha" operator="out"/>
<feColorMatrix type="matrix" values="0 0 0 0 0 0 0 0 0 0 0 0 0 0 0 0 0 0 0.25 0"/>
<feBlend mode="normal" in2="BackgroundImageFix" result="effect1_dropShadow_163_215"/>
<feBlend mode="normal" in="SourceGraphic" in2="effect1_dropShadow_163_215" result="shape"/>
</filter>
<filter id="filter2_d_163_215" x="85.9594" y="197.29" width="119.259" height="124.561" filterUnits="userSpaceOnUse" color-interpolation-filters="sRGB">
<feFlood flood-opacity="0" result="BackgroundImageFix"/>
<feColorMatrix in="SourceAlpha" type="matrix" values="0 0 0 0 0 0 0 0 0 0 0 0 0 0 0 0 0 0 127 0" result="hardAlpha"/>
<feOffset dy="2"/>
<feGaussianBlur stdDeviation="2.5"/>
<feComposite in2="hardAlpha" operator="out"/>
<feColorMatrix type="matrix" values="0 0 0 0 0 0 0 0 0 0 0 0 0 0 0 0 0 0 0.3 0"/>
<feBlend mode="normal" in2="BackgroundImageFix" result="effect1_dropShadow_163_215"/>
<feBlend mode="normal" in="SourceGraphic" in2="effect1_dropShadow_163_215" result="shape"/>
</filter>
<filter id="filter3_d_163_215" x="616.384" y="197.319" width="119.247" height="123.513" filterUnits="userSpaceOnUse" color-interpolation-filters="sRGB">
<feFlood flood-opacity="0" result="BackgroundImageFix"/>
<feColorMatrix in="SourceAlpha" type="matrix" values="0 0 0 0 0 0 0 0 0 0 0 0 0 0 0 0 0 0 127 0" result="hardAlpha"/>
<feOffset dy="2"/>
<feGaussianBlur stdDeviation="2.5"/>
<feComposite in2="hardAlpha" operator="out"/>
<feColorMatrix type="matrix" values="0 0 0 0 0 0 0 0 0 0 0 0 0 0 0 0 0 0 0.3 0"/>
<feBlend mode="normal" in2="BackgroundImageFix" result="effect1_dropShadow_163_215"/>
<feBlend mode="normal" in="SourceGraphic" in2="effect1_dropShadow_163_215" result="shape"/>
</filter>
<filter id="filter4_d_163_215" x="354.389" y="651.163" width="113.228" height="115.515" filterUnits="userSpaceOnUse" color-interpolation-filters="sRGB">
<feFlood flood-opacity="0" result="BackgroundImageFix"/>
<feColorMatrix in="SourceAlpha" type="matrix" values="0 0 0 0 0 0 0 0 0 0 0 0 0 0 0 0 0 0 127 0" result="hardAlpha"/>
<feOffset dy="2"/>
<feGaussianBlur stdDeviation="2.5"/>
<feComposite in2="hardAlpha" operator="out"/>
<feColorMatrix type="matrix" values="0 0 0 0 0 0 0 0 0 0 0 0 0 0 0 0 0 0 0.3 0"/>
<feBlend mode="normal" in2="BackgroundImageFix" result="effect1_dropShadow_163_215"/>
<feBlend mode="normal" in="SourceGraphic" in2="effect1_dropShadow_163_215" result="shape"/>
</filter>
<filter id="filter5_d_163_215" x="195.071" y="88.8954" width="123.388" height="119.549" filterUnits="userSpaceOnUse" color-interpolation-filters="sRGB">
<feFlood flood-opacity="0" result="BackgroundImageFix"/>
<feColorMatrix in="SourceAlpha" type="matrix" values="0 0 0 0 0 0 0 0 0 0 0 0 0 0 0 0 0 0 127 0" result="hardAlpha"/>
<feOffset dy="2"/>
<feGaussianBlur stdDeviation="2.5"/>
<feComposite in2="hardAlpha" operator="out"/>
<feColorMatrix type="matrix" values="0 0 0 0 0 0 0 0 0 0 0 0 0 0 0 0 0 0 0.3 0"/>
<feBlend mode="normal" in2="BackgroundImageFix" result="effect1_dropShadow_163_215"/>
<feBlend mode="normal" in="SourceGraphic" in2="effect1_dropShadow_163_215" result="shape"/>
</filter>
<filter id="filter6_d_163_215" x="648.938" y="356.395" width="115.96" height="113.217" filterUnits="userSpaceOnUse" color-interpolation-filters="sRGB">
<feFlood flood-opacity="0" result="BackgroundImageFix"/>
<feColorMatrix in="SourceAlpha" type="matrix" values="0 0 0 0 0 0 0 0 0 0 0 0 0 0 0 0 0 0 127 0" result="hardAlpha"/>
<feOffset dy="2"/>
<feGaussianBlur stdDeviation="2.5"/>
<feComposite in2="hardAlpha" operator="out"/>
<feColorMatrix type="matrix" values="0 0 0 0 0 0 0 0 0 0 0 0 0 0 0 0 0 0 0.3 0"/>
<feBlend mode="normal" in2="BackgroundImageFix" result="effect1_dropShadow_163_215"/>
<feBlend mode="normal" in="SourceGraphic" in2="effect1_dropShadow_163_215" result="shape"/>
</filter>
<filter id="filter7_d_163_215" x="195.781" y="618.894" width="124.656" height="119.271" filterUnits="userSpaceOnUse" color-interpolation-filters="sRGB">
<feFlood flood-opacity="0" result="BackgroundImageFix"/>
<feColorMatrix in="SourceAlpha" type="matrix" values="0 0 0 0 0 0 0 0 0 0 0 0 0 0 0 0 0 0 127 0" result="hardAlpha"/>
<feOffset dy="2"/>
<feGaussianBlur stdDeviation="2.5"/>
<feComposite in2="hardAlpha" operator="out"/>
<feColorMatrix type="matrix" values="0 0 0 0 0 0 0 0 0 0 0 0 0 0 0 0 0 0 0.3 0"/>
<feBlend mode="normal" in2="BackgroundImageFix" result="effect1_dropShadow_163_215"/>
<feBlend mode="normal" in="SourceGraphic" in2="effect1_dropShadow_163_215" result="shape"/>
</filter>
<filter id="filter8_d_163_215" x="354.395" y="59.1029" width="113.217" height="115.959" filterUnits="userSpaceOnUse" color-interpolation-filters="sRGB">
<feFlood flood-opacity="0" result="BackgroundImageFix"/>
<feColorMatrix in="SourceAlpha" type="matrix" values="0 0 0 0 0 0 0 0 0 0 0 0 0 0 0 0 0 0 127 0" result="hardAlpha"/>
<feOffset dy="2"/>
<feGaussianBlur stdDeviation="2.5"/>
<feComposite in2="hardAlpha" operator="out"/>
<feColorMatrix type="matrix" values="0 0 0 0 0 0 0 0 0 0 0 0 0 0 0 0 0 0 0.3 0"/>
<feBlend mode="normal" in2="BackgroundImageFix" result="effect1_dropShadow_163_215"/>
<feBlend mode="normal" in="SourceGraphic" in2="effect1_dropShadow_163_215" result="shape"/>
</filter>
<filter id="filter9_d_163_215" x="616.894" y="503.568" width="119.271" height="124.65" filterUnits="userSpaceOnUse" color-interpolation-filters="sRGB">
<feFlood flood-opacity="0" result="BackgroundImageFix"/>
<feColorMatrix in="SourceAlpha" type="matrix" values="0 0 0 0 0 0 0 0 0 0 0 0 0 0 0 0 0 0 127 0" result="hardAlpha"/>
<feOffset dy="2"/>
<feGaussianBlur stdDeviation="2.5"/>
<feComposite in2="hardAlpha" operator="out"/>
<feColorMatrix type="matrix" values="0 0 0 0 0 0 0 0 0 0 0 0 0 0 0 0 0 0 0.3 0"/>
<feBlend mode="normal" in2="BackgroundImageFix" result="effect1_dropShadow_163_215"/>
<feBlend mode="normal" in="SourceGraphic" in2="effect1_dropShadow_163_215" result="shape"/>
</filter>
<filter id="filter10_d_163_215" x="86.8954" y="505.541" width="119.549" height="123.388" filterUnits="userSpaceOnUse" color-interpolation-filters="sRGB">
<feFlood flood-opacity="0" result="BackgroundImageFix"/>
<feColorMatrix in="SourceAlpha" type="matrix" values="0 0 0 0 0 0 0 0 0 0 0 0 0 0 0 0 0 0 127 0" result="hardAlpha"/>
<feOffset dy="2"/>
<feGaussianBlur stdDeviation="2.5"/>
<feComposite in2="hardAlpha" operator="out"/>
<feColorMatrix type="matrix" values="0 0 0 0 0 0 0 0 0 0 0 0 0 0 0 0 0 0 0.3 0"/>
<feBlend mode="normal" in2="BackgroundImageFix" result="effect1_dropShadow_163_215"/>
<feBlend mode="normal" in="SourceGraphic" in2="effect1_dropShadow_163_215" result="shape"/>
</filter>
<filter id="filter11_d_163_215" x="501.568" y="87.8409" width="124.65" height="119.265" filterUnits="userSpaceOnUse" color-interpolation-filters="sRGB">
<feFlood flood-opacity="0" result="BackgroundImageFix"/>
<feColorMatrix in="SourceAlpha" type="matrix" values="0 0 0 0 0 0 0 0 0 0 0 0 0 0 0 0 0 0 127 0" result="hardAlpha"/>
<feOffset dy="2"/>
<feGaussianBlur stdDeviation="2.5"/>
<feComposite in2="hardAlpha" operator="out"/>
<feColorMatrix type="matrix" values="0 0 0 0 0 0 0 0 0 0 0 0 0 0 0 0 0 0 0.3 0"/>
<feBlend mode="normal" in2="BackgroundImageFix" result="effect1_dropShadow_163_215"/>
<feBlend mode="normal" in="SourceGraphic" in2="effect1_dropShadow_163_215" result="shape"/>
</filter>
<filter id="filter12_d_163_215" x="503.541" y="617.555" width="123.388" height="119.549" filterUnits="userSpaceOnUse" color-interpolation-filters="sRGB">
<feFlood flood-opacity="0" result="BackgroundImageFix"/>
<feColorMatrix in="SourceAlpha" type="matrix" values="0 0 0 0 0 0 0 0 0 0 0 0 0 0 0 0 0 0 127 0" result="hardAlpha"/>
<feOffset dy="2"/>
<feGaussianBlur stdDeviation="2.5"/>
<feComposite in2="hardAlpha" operator="out"/>
<feColorMatrix type="matrix" values="0 0 0 0 0 0 0 0 0 0 0 0 0 0 0 0 0 0 0.3 0"/>
<feBlend mode="normal" in2="BackgroundImageFix" result="effect1_dropShadow_163_215"/>
<feBlend mode="normal" in="SourceGraphic" in2="effect1_dropShadow_163_215" result="shape"/>
</filter>
<filter id="filter13_d_163_215" x="57.1029" y="356.395" width="115.959" height="113.217" filterUnits="userSpaceOnUse" color-interpolation-filters="sRGB">
<feFlood flood-opacity="0" result="BackgroundImageFix"/>
<feColorMatrix in="SourceAlpha" type="matrix" values="0 0 0 0 0 0 0 0 0 0 0 0 0 0 0 0 0 0 127 0" result="hardAlpha"/>
<feOffset dy="2"/>
<feGaussianBlur stdDeviation="2.5"/>
<feComposite in2="hardAlpha" operator="out"/>
<feColorMatrix type="matrix" values="0 0 0 0 0 0 0 0 0 0 0 0 0 0 0 0 0 0 0.3 0"/>
<feBlend mode="normal" in2="BackgroundImageFix" result="effect1_dropShadow_163_215"/>
<feBlend mode="normal" in="SourceGraphic" in2="effect1_dropShadow_163_215" result="shape"/>
</filter>
<filter id="filter14_i_163_215" x="381.5" y="98" width="61.9289" height="25" filterUnits="userSpaceOnUse" color-interpolation-filters="sRGB">
<feFlood flood-opacity="0" result="BackgroundImageFix"/>
<feBlend mode="normal" in="SourceGraphic" in2="BackgroundImageFix" result="shape"/>
<feColorMatrix in="SourceAlpha" type="matrix" values="0 0 0 0 0 0 0 0 0 0 0 0 0 0 0 0 0 0 127 0" result="hardAlpha"/>
<feOffset dy="4"/>
<feGaussianBlur stdDeviation="2"/>
<feComposite in2="hardAlpha" operator="arithmetic" k2="-1" k3="1"/>
<feColorMatrix type="matrix" values="0 0 0 0 0 0 0 0 0 0 0 0 0 0 0 0 0 0 0.25 0"/>
<feBlend mode="normal" in2="shape" result="effect1_innerShadow_163_215"/>
</filter>
<filter id="filter15_i_163_215" x="649.757" y="530.15" width="45.8492" height="62.4131" filterUnits="userSpaceOnUse" color-interpolation-filters="sRGB">
<feFlood flood-opacity="0" result="BackgroundImageFix"/>
<feBlend mode="normal" in="SourceGraphic" in2="BackgroundImageFix" result="shape"/>
<feColorMatrix in="SourceAlpha" type="matrix" values="0 0 0 0 0 0 0 0 0 0 0 0 0 0 0 0 0 0 127 0" result="hardAlpha"/>
<feOffset dy="4"/>
<feGaussianBlur stdDeviation="2"/>
<feComposite in2="hardAlpha" operator="arithmetic" k2="-1" k3="1"/>
<feColorMatrix type="matrix" values="0 0 0 0 0 0 0 0 0 0 0 0 0 0 0 0 0 0 0.25 0"/>
<feBlend mode="normal" in2="shape" result="effect1_innerShadow_163_215"/>
</filter>
<filter id="filter16_i_163_215" x="125.757" y="535.167" width="45.8491" height="62.4131" filterUnits="userSpaceOnUse" color-interpolation-filters="sRGB">
<feFlood flood-opacity="0" result="BackgroundImageFix"/>
<feBlend mode="normal" in="SourceGraphic" in2="BackgroundImageFix" result="shape"/>
<feColorMatrix in="SourceAlpha" type="matrix" values="0 0 0 0 0 0 0 0 0 0 0 0 0 0 0 0 0 0 127 0" result="hardAlpha"/>
<feOffset dy="4"/>
<feGaussianBlur stdDeviation="2"/>
<feComposite in2="hardAlpha" operator="arithmetic" k2="-1" k3="1"/>
<feColorMatrix type="matrix" values="0 0 0 0 0 0 0 0 0 0 0 0 0 0 0 0 0 0 0.25 0"/>
<feBlend mode="normal" in2="shape" result="effect1_innerShadow_163_215"/>
</filter>
<filter id="filter17_i_163_215" x="526.15" y="120.169" width="73.3318" height="58.4625" filterUnits="userSpaceOnUse" color-interpolation-filters="sRGB">
<feFlood flood-opacity="0" result="BackgroundImageFix"/>
<feBlend mode="normal" in="SourceGraphic" in2="BackgroundImageFix" result="shape"/>
<feColorMatrix in="SourceAlpha" type="matrix" values="0 0 0 0 0 0 0 0 0 0 0 0 0 0 0 0 0 0 127 0" result="hardAlpha"/>
<feOffset dy="4"/>
<feGaussianBlur stdDeviation="2"/>
<feComposite in2="hardAlpha" operator="arithmetic" k2="-1" k3="1"/>
<feColorMatrix type="matrix" values="0 0 0 0 0 0 0 0 0 0 0 0 0 0 0 0 0 0 0.25 0"/>
<feBlend mode="normal" in2="shape" result="effect1_innerShadow_163_215"/>
</filter>
<filter id="filter18_i_163_215" x="531.365" y="647.319" width="63.1517" height="52.585" filterUnits="userSpaceOnUse" color-interpolation-filters="sRGB">
<feFlood flood-opacity="0" result="BackgroundImageFix"/>
<feBlend mode="normal" in="SourceGraphic" in2="BackgroundImageFix" result="shape"/>
<feColorMatrix in="SourceAlpha" type="matrix" values="0 0 0 0 0 0 0 0 0 0 0 0 0 0 0 0 0 0 127 0" result="hardAlpha"/>
<feOffset dy="4"/>
<feGaussianBlur stdDeviation="2"/>
<feComposite in2="hardAlpha" operator="arithmetic" k2="-1" k3="1"/>
<feColorMatrix type="matrix" values="0 0 0 0 0 0 0 0 0 0 0 0 0 0 0 0 0 0 0.25 0"/>
<feBlend mode="normal" in2="shape" result="effect1_innerShadow_163_215"/>
</filter>
<filter id="filter19_i_163_215" x="97" y="378.809" width="21" height="66.5406" filterUnits="userSpaceOnUse" color-interpolation-filters="sRGB">
<feFlood flood-opacity="0" result="BackgroundImageFix"/>
<feBlend mode="normal" in="SourceGraphic" in2="BackgroundImageFix" result="shape"/>
<feColorMatrix in="SourceAlpha" type="matrix" values="0 0 0 0 0 0 0 0 0 0 0 0 0 0 0 0 0 0 127 0" result="hardAlpha"/>
<feOffset dy="4"/>
<feGaussianBlur stdDeviation="2"/>
<feComposite in2="hardAlpha" operator="arithmetic" k2="-1" k3="1"/>
<feColorMatrix type="matrix" values="0 0 0 0 0 0 0 0 0 0 0 0 0 0 0 0 0 0 0.25 0"/>
<feBlend mode="normal" in2="shape" result="effect1_innerShadow_163_215"/>
</filter>
<filter id="filter20_i_163_215" x="652.169" y="218.15" width="54.9459" height="78.1691" filterUnits="userSpaceOnUse" color-interpolation-filters="sRGB">
<feFlood flood-opacity="0" result="BackgroundImageFix"/>
<feBlend mode="normal" in="SourceGraphic" in2="BackgroundImageFix" result="shape"/>
<feColorMatrix in="SourceAlpha" type="matrix" values="0 0 0 0 0 0 0 0 0 0 0 0 0 0 0 0 0 0 127 0" result="hardAlpha"/>
<feOffset dy="4"/>
<feGaussianBlur stdDeviation="2"/>
<feComposite in2="hardAlpha" operator="arithmetic" k2="-1" k3="1"/>
<feColorMatrix type="matrix" values="0 0 0 0 0 0 0 0 0 0 0 0 0 0 0 0 0 0 0.25 0"/>
<feBlend mode="normal" in2="shape" result="effect1_innerShadow_163_215"/>
</filter>
<filter id="filter21_i_163_215" x="379.304" y="704" width="61.6465" height="25" filterUnits="userSpaceOnUse" color-interpolation-filters="sRGB">
<feFlood flood-opacity="0" result="BackgroundImageFix"/>
<feBlend mode="normal" in="SourceGraphic" in2="BackgroundImageFix" result="shape"/>
<feColorMatrix in="SourceAlpha" type="matrix" values="0 0 0 0 0 0 0 0 0 0 0 0 0 0 0 0 0 0 127 0" result="hardAlpha"/>
<feOffset dy="4"/>
<feGaussianBlur stdDeviation="2"/>
<feComposite in2="hardAlpha" operator="arithmetic" k2="-1" k3="1"/>
<feColorMatrix type="matrix" values="0 0 0 0 0 0 0 0 0 0 0 0 0 0 0 0 0 0 0.25 0"/>
<feBlend mode="normal" in2="shape" result="effect1_innerShadow_163_215"/>
</filter>
<filter id="filter22_i_163_215" x="123.319" y="225.629" width="49.0098" height="67.8875" filterUnits="userSpaceOnUse" color-interpolation-filters="sRGB">
<feFlood flood-opacity="0" result="BackgroundImageFix"/>
<feBlend mode="normal" in="SourceGraphic" in2="BackgroundImageFix" result="shape"/>
<feColorMatrix in="SourceAlpha" type="matrix" values="0 0 0 0 0 0 0 0 0 0 0 0 0 0 0 0 0 0 127 0" result="hardAlpha"/>
<feOffset dy="4"/>
<feGaussianBlur stdDeviation="2"/>
<feComposite in2="hardAlpha" operator="arithmetic" k2="-1" k3="1"/>
<feColorMatrix type="matrix" values="0 0 0 0 0 0 0 0 0 0 0 0 0 0 0 0 0 0 0.25 0"/>
<feBlend mode="normal" in2="shape" result="effect1_innerShadow_163_215"/>
</filter>
<filter id="filter23_i_163_215" x="710" y="371.75" width="21" height="78.4562" filterUnits="userSpaceOnUse" color-interpolation-filters="sRGB">
<feFlood flood-opacity="0" result="BackgroundImageFix"/>
<feBlend mode="normal" in="SourceGraphic" in2="BackgroundImageFix" result="shape"/>
<feColorMatrix in="SourceAlpha" type="matrix" values="0 0 0 0 0 0 0 0 0 0 0 0 0 0 0 0 0 0 127 0" result="hardAlpha"/>
<feOffset dy="4"/>
<feGaussianBlur stdDeviation="2"/>
<feComposite in2="hardAlpha" operator="arithmetic" k2="-1" k3="1"/>
<feColorMatrix type="matrix" values="0 0 0 0 0 0 0 0 0 0 0 0 0 0 0 0 0 0 0.25 0"/>
<feBlend mode="normal" in2="shape" result="effect1_innerShadow_163_215"/>
</filter>
<filter id="filter24_i_163_215" x="226.238" y="647.798" width="63.928" height="53.0332" filterUnits="userSpaceOnUse" color-interpolation-filters="sRGB">
<feFlood flood-opacity="0" result="BackgroundImageFix"/>
<feBlend mode="normal" in="SourceGraphic" in2="BackgroundImageFix" result="shape"/>
<feColorMatrix in="SourceAlpha" type="matrix" values="0 0 0 0 0 0 0 0 0 0 0 0 0 0 0 0 0 0 127 0" result="hardAlpha"/>
<feOffset dy="4"/>
<feGaussianBlur stdDeviation="2"/>
<feComposite in2="hardAlpha" operator="arithmetic" k2="-1" k3="1"/>
<feColorMatrix type="matrix" values="0 0 0 0 0 0 0 0 0 0 0 0 0 0 0 0 0 0 0.25 0"/>
<feBlend mode="normal" in2="shape" result="effect1_innerShadow_163_215"/>
</filter>
<filter id="filter25_i_163_215" x="226.929" y="124.153" width="63.8752" height="53.0027" filterUnits="userSpaceOnUse" color-interpolation-filters="sRGB">
<feFlood flood-opacity="0" result="BackgroundImageFix"/>
<feBlend mode="normal" in="SourceGraphic" in2="BackgroundImageFix" result="shape"/>
<feColorMatrix in="SourceAlpha" type="matrix" values="0 0 0 0 0 0 0 0 0 0 0 0 0 0 0 0 0 0 127 0" result="hardAlpha"/>
<feOffset dy="4"/>
<feGaussianBlur stdDeviation="2"/>
<feComposite in2="hardAlpha" operator="arithmetic" k2="-1" k3="1"/>
<feColorMatrix type="matrix" values="0 0 0 0 0 0 0 0 0 0 0 0 0 0 0 0 0 0 0.25 0"/>
<feBlend mode="normal" in2="shape" result="effect1_innerShadow_163_215"/>
</filter>
<linearGradient id="paint0_linear_163_215" x1="839.67" y1="987.578" x2="153.679" y2="-78.4594" gradientUnits="userSpaceOnUse">
<stop stop-color="#12151D"/>
<stop offset="0.150475" stop-color="#28303F"/>
<stop offset="1" stop-color="#181C3A"/>
</linearGradient>
<linearGradient id="paint1_linear_163_215" x1="79.1229" y1="206.599" x2="239.567" y2="314.294" gradientUnits="userSpaceOnUse">
<stop stop-color="#586B75"/>
<stop offset="1" stop-color="#999999"/>
</linearGradient>
<linearGradient id="paint2_linear_163_215" x1="740.679" y1="206.599" x2="582.433" y2="309.898" gradientUnits="userSpaceOnUse">
<stop stop-color="#586B75"/>
<stop offset="1" stop-color="#999999"/>
</linearGradient>
<linearGradient id="paint3_linear_163_215" x1="412.511" y1="612.161" x2="412.511" y2="808.244" gradientUnits="userSpaceOnUse">
<stop stop-color="#999999"/>
<stop offset="1" stop-color="#586B75"/>
</linearGradient>
<linearGradient id="paint4_linear_163_215" x1="217.588" y1="63.7379" x2="318.69" y2="237.369" gradientUnits="userSpaceOnUse">
<stop stop-color="#D34A00"/>
<stop offset="0.494792" stop-color="#E57411"/>
<stop offset="1" stop-color="#F79F23"/>
</linearGradient>
<linearGradient id="paint5_linear_163_215" x1="612.161" y1="409.495" x2="808.244" y2="409.495" gradientUnits="userSpaceOnUse">
<stop stop-color="#D34A00"/>
<stop offset="0.478431" stop-color="#E57411"/>
<stop offset="1" stop-color="#F79F23"/>
</linearGradient>
<linearGradient id="paint6_linear_163_215" x1="307.7" y1="580.235" x2="219.786" y2="756.064" gradientUnits="userSpaceOnUse">
<stop stop-color="#D34A00"/>
<stop offset="0.494792" stop-color="#E57411"/>
<stop offset="1" stop-color="#F79F23"/>
</linearGradient>
<linearGradient id="paint7_linear_163_215" x1="409.495" y1="5.89011" x2="411" y2="217.28" gradientUnits="userSpaceOnUse">
<stop stop-color="#01625D"/>
<stop offset="0.478431" stop-color="#2B8372"/>
<stop offset="1" stop-color="#45B5A5"/>
</linearGradient>
<linearGradient id="paint8_linear_163_215" x1="591.631" y1="517.677" x2="758.517" y2="617.809" gradientUnits="userSpaceOnUse">
<stop stop-color="#45B5A5"/>
<stop offset="0.515625" stop-color="#2B8372"/>
<stop offset="1" stop-color="#12523F"/>
</linearGradient>
<linearGradient id="paint9_linear_163_215" x1="236.914" y1="515.059" x2="66.7547" y2="615.845" gradientUnits="userSpaceOnUse">
<stop stop-color="#45B5A5"/>
<stop offset="0.515625" stop-color="#2B8372"/>
<stop offset="1" stop-color="#12523F"/>
</linearGradient>
<linearGradient id="paint10_linear_163_215" x1="604.412" y1="63.7379" x2="507.706" y2="232.973" gradientUnits="userSpaceOnUse">
<stop stop-color="#ED39FD"/>
<stop offset="1" stop-color="#FF8BBC"/>
</linearGradient>
<linearGradient id="paint11_linear_163_215" x1="617.154" y1="751.319" x2="511.787" y2="585.74" gradientUnits="userSpaceOnUse">
<stop stop-color="#ED39FD"/>
<stop offset="1" stop-color="#FF8BBC"/>
</linearGradient>
<linearGradient id="paint12_linear_163_215" x1="211.39" y1="411" x2="40.5764" y2="411" gradientUnits="userSpaceOnUse">
<stop stop-color="#FF8BBC"/>
<stop offset="1" stop-color="#ED39FD"/>
</linearGradient>
<clipPath id="clip0_163_215">
<rect width="822" height="822" fill="white"/>
</clipPath>
</defs>
</svg>