<?xml version="1.0" standalone="no"?>
<!DOCTYPE svg PUBLIC "-//W3C//DTD SVG 20010904//EN"
 "http://www.w3.org/TR/2001/REC-SVG-20010904/DTD/svg10.dtd">
<svg version="1.0" xmlns="http://www.w3.org/2000/svg"
 width="550.000000pt" height="275.000000pt" viewBox="0 0 550.000000 275.000000"
 preserveAspectRatio="xMidYMid meet">

<g transform="translate(0.000000,275.000000) scale(0.100000,-0.100000)"
fill="#000000" stroke="none">
<path d="M2317 2458 c-19 -35 -47 -88 -62 -118 -29 -58 -110 -150 -133 -150
-7 0 -10 -6 -7 -12 4 -7 -1 -4 -10 7 -9 11 -20 19 -25 18 -5 -2 -9 10 -9 25 1
53 -22 142 -37 142 -8 0 -14 7 -14 16 0 9 5 12 12 8 8 -5 9 -2 5 10 -4 10 -7
23 -8 29 0 7 -5 1 -10 -12 -20 -50 -22 -166 -5 -260 9 -50 14 -96 11 -101 -4
-6 7 -26 24 -46 30 -34 31 -34 31 -10 0 20 28 65 60 96 3 3 16 18 29 33 21 23
22 27 7 27 -10 0 -31 -13 -47 -29 -16 -16 -29 -25 -29 -20 0 4 28 34 62 66
102 95 114 109 126 152 9 27 17 38 27 35 10 -4 15 7 20 40 4 25 11 46 15 46 4
0 10 16 12 35 2 19 1 35 -3 35 -4 0 -23 -28 -42 -62z m-247 -303 c0 -5 -5 -3
-10 5 -5 8 -10 20 -10 25 0 6 5 3 10 -5 5 -8 10 -19 10 -25z m-4 -95 c-14 -17
-26 -29 -26 -25 0 10 44 63 49 59 2 -2 -8 -17 -23 -34z"/>
<path d="M3209 2463 c-1 -32 -1 -122 1 -200 1 -100 -1 -143 -9 -143 -6 0 -11
12 -12 28 0 15 -4 36 -8 47 -8 19 -9 18 -21 -7 -7 -16 -19 -28 -27 -28 -20 0
-113 90 -113 108 0 13 -2 14 -12 3 -11 -10 -2 -22 42 -63 30 -28 41 -41 23
-29 -61 41 -162 178 -148 201 3 5 3 15 -1 21 -5 8 -9 8 -14 -1 -15 -25 19 -94
85 -170 16 -19 24 -30 16 -23 -7 6 -20 9 -28 6 -12 -5 -11 -9 3 -24 9 -10 20
-16 25 -13 4 2 15 -6 24 -19 8 -13 36 -39 62 -57 46 -34 49 -27 9 19 -26 29
172 -97 237 -151 27 -22 50 -38 53 -35 6 6 -62 60 -178 140 -53 37 -100 72
-103 77 -10 17 166 -97 234 -151 84 -67 89 -58 6 11 -36 30 -65 57 -65 60 0 3
-16 21 -35 40 l-34 35 -1 153 c0 146 10 189 24 102 3 -22 11 -39 17 -37 6 1
20 -20 30 -47 11 -28 30 -56 42 -64 12 -8 59 -52 103 -98 92 -95 96 -95 113 0
14 76 15 247 1 226 -8 -13 -10 -12 -10 3 0 9 5 17 10 17 6 0 10 7 10 15 0 8
-4 15 -9 15 -11 0 -31 -78 -24 -96 3 -8 1 -14 -4 -14 -6 0 -22 -29 -38 -65
-15 -36 -33 -65 -39 -65 -29 0 -107 101 -162 208 -31 62 -61 115 -66 118 -4 3
-9 -21 -9 -53z m291 -263 c0 -5 -7 -10 -15 -10 -8 0 -15 5 -15 10 0 6 7 10 15
10 8 0 15 -4 15 -10z m-449 -27 c13 -16 12 -17 -3 -4 -17 13 -22 21 -14 21 2
0 10 -8 17 -17z"/>
<path d="M2821 2476 c2 -2 15 -9 29 -15 24 -11 24 -11 6 3 -16 13 -49 24 -35
12z"/>
<path d="M2676 2433 c-42 -44 -44 -52 -12 -82 20 -19 30 -41 52 -120 3 -11 7
-11 19 -1 21 17 19 32 -10 74 -24 35 -20 51 5 21 7 -8 16 -15 21 -15 5 0 -11
20 -36 44 -42 41 -59 66 -33 50 7 -5 8 -3 3 6 -6 9 1 21 21 37 16 12 24 23 18
23 -7 0 -28 -17 -48 -37z"/>
<path d="M2735 2450 c-3 -5 1 -10 9 -10 9 0 16 5 16 10 0 6 -4 10 -9 10 -6 0
-13 -4 -16 -10z"/>
<path d="M2728 2414 c-16 -8 -28 -18 -28 -23 0 -5 18 -23 40 -41 22 -18 40
-41 40 -51 0 -23 18 -25 26 -4 4 8 10 15 16 15 5 0 6 -6 2 -12 -3 -7 6 1 21
17 31 35 30 30 -9 -47 -25 -48 -27 -59 -17 -72 21 -26 31 -19 31 22 0 21 9 63
20 95 11 31 20 61 20 67 0 15 -75 50 -107 50 -15 -1 -40 -8 -55 -16z m84 -14
c15 0 5 -42 -14 -54 -14 -8 -22 -6 -40 12 -23 23 -23 23 -3 38 11 8 26 12 33
9 8 -3 18 -5 24 -5z m33 -40 c-10 -11 -21 -17 -24 -14 -3 3 3 12 13 20 28 20
32 17 11 -6z"/>
<path d="M2352 2269 c-2 -106 -4 -117 -24 -136 -13 -11 -33 -24 -45 -28 -13
-3 -23 -10 -23 -14 0 -4 -10 -13 -23 -18 -32 -15 -150 -114 -143 -120 3 -3 31
17 63 45 32 27 90 69 128 92 39 24 80 49 93 58 12 8 22 12 22 9 0 -3 -56 -44
-124 -92 -68 -47 -134 -98 -147 -112 -14 -16 0 -8 36 19 33 25 100 71 149 103
84 54 87 55 65 24 l-23 -32 30 17 c16 10 49 36 74 58 25 22 37 35 27 27 -21
-15 -63 -21 -49 -7 5 5 16 10 23 11 8 2 14 5 14 7 1 3 27 39 58 80 31 41 57
79 57 85 -1 10 -13 -4 -57 -61 -19 -25 -24 -27 -33 -14 -9 12 -13 12 -17 2
-13 -33 -56 -72 -73 -67 -12 4 -19 -1 -23 -17 -12 -42 -22 -6 -28 95 l-5 102
-2 -116z m148 -33 c0 -2 -19 -19 -42 -37 l-43 -33 34 37 c31 33 51 46 51 33z"/>
<path d="M1620 2273 c1 -5 9 -24 20 -43 23 -41 27 -23 5 20 -15 29 -25 38 -25
23z"/>
<path d="M2572 2244 c-23 -19 -46 -33 -51 -30 -5 3 -14 -1 -20 -8 -8 -10 -9
-16 -1 -21 8 -5 120 79 120 91 0 8 -7 3 -48 -32z"/>
<path d="M2795 2254 c-9 -14 -14 -28 -12 -31 3 -3 13 9 22 26 19 38 14 41 -10
5z"/>
<path d="M2900 2267 c0 -2 15 -16 33 -33 l32 -29 -29 33 c-28 30 -36 37 -36
29z"/>
<path d="M3855 2240 c-9 -18 -14 -34 -11 -37 2 -3 12 9 21 27 9 18 14 34 11
37 -2 3 -12 -9 -21 -27z"/>
<path d="M1684 2215 c5 -11 11 -28 13 -37 6 -21 17 -23 30 -5 8 8 2 19 -20 37
-27 22 -30 23 -23 5z"/>
<path d="M3791 2207 c-19 -21 -20 -25 -6 -37 12 -10 16 -8 25 15 6 15 13 32
16 36 11 19 -14 8 -35 -14z"/>
<path d="M2900 2215 c0 -4 10 -15 21 -24 12 -10 22 -30 23 -46 1 -32 25 -51
51 -41 13 5 15 9 6 20 -6 7 -9 15 -7 17 2 2 -18 21 -45 42 -27 21 -49 35 -49
32z"/>
<path d="M2563 2187 c-36 -29 -211 -147 -218 -147 -4 0 -3 5 1 12 5 7 3 8 -5
4 -7 -5 -10 -11 -7 -14 7 -7 -13 -32 -26 -32 -6 0 -4 8 3 18 13 15 12 16 -3 4
-10 -8 -16 -19 -15 -24 1 -6 -4 -13 -12 -16 -9 -3 -11 0 -6 9 5 8 4 11 -1 6
-5 -5 -9 -13 -9 -18 0 -5 -11 -15 -25 -22 -18 -9 -25 -21 -25 -42 0 -24 7 -34
39 -51 22 -12 44 -20 51 -18 6 3 17 -2 24 -10 11 -13 18 -10 52 21 84 77 117
155 85 198 -12 17 -19 14 -102 -55 -49 -41 -82 -66 -74 -56 8 10 57 54 110 98
68 57 96 75 98 64 2 -9 11 -16 19 -16 24 0 53 29 46 46 -3 8 5 26 17 40 29 30
20 31 -17 1z m-143 -182 c0 -2 -10 -9 -22 -15 -22 -11 -22 -10 -4 4 21 17 26
19 26 11z m50 -3 c0 -4 -21 -18 -46 -30 -26 -13 -44 -26 -41 -29 4 -3 18 2 31
11 38 24 40 20 10 -19 -15 -20 -29 -33 -32 -31 -3 3 1 13 9 22 13 16 12 16
-10 5 -15 -8 -21 -9 -17 -2 9 14 0 14 -27 0 -40 -20 -3 10 54 46 57 35 69 40
69 27z"/>
<path d="M2630 2188 c0 -16 5 -28 10 -28 13 0 13 20 0 40 -8 12 -10 9 -10 -12z"/>
<path d="M2600 2175 c-1 -11 -2 -25 -1 -32 1 -7 -10 -20 -24 -29 -24 -15 -34
-34 -17 -34 4 0 20 12 36 26 26 23 28 28 18 57 -7 24 -11 27 -12 12z"/>
<path d="M1669 2162 c6 -12 16 -24 22 -28 8 -4 8 -1 0 14 -6 12 -16 24 -22 28
-8 4 -8 1 0 -14z"/>
<path d="M3682 2140 c-10 -22 -16 -37 -12 -35 14 9 50 75 41 75 -5 0 -18 -18
-29 -40z"/>
<path d="M3821 2162 c-17 -31 -13 -40 5 -14 9 13 14 26 11 29 -3 2 -10 -4 -16
-15z"/>
<path d="M1819 2127 c16 -24 38 -50 48 -58 10 -8 5 1 -11 20 -15 19 -32 45
-37 58 -5 13 -13 23 -19 23 -6 0 2 -19 19 -43z"/>
<path d="M3422 2119 c18 -23 41 -51 50 -63 16 -20 17 -20 24 -3 5 14 -5 30
-37 63 -55 56 -83 59 -37 3z"/>
<path d="M2880 2141 c0 -14 69 -65 77 -58 6 7 -28 39 -59 58 -12 6 -18 6 -18
0z"/>
<path d="M3006 2132 c5 -5 38 -31 74 -59 36 -28 76 -64 90 -79 14 -15 -12 2
-57 39 -95 79 -107 80 -178 13 -43 -40 -62 -80 -38 -81 6 0 28 -21 48 -47 20
-27 37 -48 38 -48 1 0 3 15 4 33 1 24 0 27 -6 12 -7 -17 -9 -16 -15 13 -4 17
-12 32 -17 32 -5 0 -9 5 -9 10 0 6 6 10 14 10 9 0 16 12 18 28 2 19 8 27 21
26 9 -1 17 4 17 11 0 7 8 19 18 26 14 11 15 11 5 -1 -35 -38 3 -126 88 -204
30 -28 43 -35 49 -26 4 7 16 14 26 15 42 4 86 29 95 52 10 28 2 49 -32 78 -23
19 -23 19 -9 1 13 -18 13 -19 0 -11 -41 23 -70 47 -65 55 3 4 -3 14 -13 21
-15 13 -16 12 -3 -3 23 -30 2 -20 -79 37 -43 30 -82 55 -86 55 -4 0 -4 -4 2
-8z m105 -162 c69 -41 96 -64 39 -35 -38 20 -45 19 -29 -2 11 -15 11 -16 -1
-5 -24 21 -34 13 -14 -10 10 -13 2 -8 -19 11 -39 37 -42 50 -7 31 12 -6 24
-10 26 -7 3 2 -9 10 -25 17 -29 12 -61 40 -46 40 3 0 38 -18 76 -40z m14 20
c3 -5 2 -10 -4 -10 -5 0 -13 5 -16 10 -3 6 -2 10 4 10 5 0 13 -4 16 -10z"/>
<path d="M2720 2073 c-12 -32 -30 -73 -41 -92 l-20 -34 31 -32 c27 -28 30 -35
20 -60 -14 -37 -5 -44 12 -8 19 40 44 41 63 1 l15 -33 -6 33 c-5 29 -1 39 24
65 l31 32 -46 93 c-26 50 -50 92 -54 92 -4 0 -17 -26 -29 -57z m90 -105 c0
-10 -6 -18 -13 -18 -7 0 -18 -13 -24 -30 -6 -16 -16 -30 -21 -30 -6 0 -15 14
-21 30 -5 17 -17 30 -25 30 -9 0 -16 2 -16 5 0 7 49 135 56 147 7 11 63 -107
64 -134z"/>
<path d="M1887 2100 c3 -10 13 -20 23 -23 19 -5 78 -160 85 -224 2 -17 7 -42
11 -55 6 -21 6 -22 -11 -8 -11 8 11 -23 47 -70 58 -76 128 -143 184 -177 18
-11 18 -11 0 -18 -11 -5 -35 0 -63 14 -25 12 -47 20 -49 18 -3 -2 8 -17 23
-32 l28 -28 -30 16 c-16 8 -52 32 -80 51 -27 20 -55 36 -61 36 -12 0 -44 32
-44 44 0 4 6 4 13 -1 6 -4 4 6 -7 21 -10 16 -34 56 -54 90 -19 33 -46 75 -59
92 -12 17 -41 69 -63 117 -22 48 -42 87 -45 87 -8 0 6 -33 58 -137 44 -88 49
-104 37 -118 -9 -11 -22 -14 -39 -11 -18 4 -13 -1 16 -17 23 -12 51 -34 63
-50 12 -15 25 -25 29 -22 5 2 19 -8 32 -23 l24 -27 -27 24 c-43 38 -33 12 15
-38 23 -24 34 -41 25 -38 -14 5 -14 1 4 -29 21 -36 43 -52 55 -40 4 3 -7 20
-23 37 l-29 31 40 -20 c40 -20 94 -69 64 -57 -11 4 -15 -1 -15 -20 0 -21 7
-27 38 -37 20 -6 35 -15 32 -19 -9 -15 -108 29 -132 58 -65 77 -139 156 -157
165 -11 6 6 -16 38 -49 32 -33 57 -65 55 -71 -2 -6 6 -18 17 -27 11 -9 0 -6
-24 7 -39 20 -119 96 -261 248 l-42 45 33 -50 c18 -27 50 -73 71 -102 22 -31
38 -64 38 -80 0 -40 11 -74 21 -67 5 3 9 0 9 -6 0 -6 14 -24 31 -40 l32 -28
-32 -38 c-32 -40 -42 -65 -16 -44 19 16 19 6 0 -24 -13 -20 -13 -28 -2 -54
l13 -32 42 43 c23 24 42 50 42 59 0 9 5 20 10 23 6 3 10 15 10 25 0 48 123
-21 155 -88 24 -49 28 -79 10 -86 -8 -3 -15 -12 -15 -21 0 -16 -27 -20 -49 -6
-11 7 -10 11 6 20 35 18 35 48 1 62 -45 18 -69 -10 -69 -84 l-1 -56 83 -83
c76 -76 139 -174 139 -215 0 -7 16 -19 35 -27 40 -17 43 -28 16 -55 -20 -20
-19 -20 8 -58 36 -48 121 -131 121 -117 0 5 -6 16 -12 24 -7 7 8 -3 34 -24 28
-23 48 -32 50 -25 3 8 14 2 31 -15 27 -27 47 -27 47 0 0 8 5 12 10 9 14 -9 13
58 -1 72 -6 6 -9 19 -7 29 3 16 8 13 25 -15 15 -23 20 -44 16 -62 -7 -36 25
-99 117 -234 35 -51 82 -105 92 -105 5 0 -4 16 -20 35 -39 43 -104 139 -126
185 l-18 35 26 -30 c15 -16 33 -42 41 -57 18 -33 71 -61 99 -52 34 11 75 46
98 84 18 29 22 32 26 16 3 -13 -8 -30 -34 -52 -34 -29 -36 -33 -17 -34 20 0
44 22 86 80 17 25 17 25 6 1 -8 -17 -8 -22 0 -16 6 3 27 37 46 74 l34 68 -25
34 c-16 22 -24 27 -24 16 0 -9 0 -19 0 -22 0 -3 3 -5 8 -6 4 0 13 -6 20 -12
11 -8 9 -13 -10 -23 -44 -25 -96 -11 -63 16 10 9 15 9 15 1 0 -6 10 -10 23
-10 16 1 18 2 5 6 -39 10 -1 94 56 125 18 10 19 7 12 -68 -3 -44 -9 -105 -13
-136 -4 -48 -3 -58 9 -58 9 0 22 7 29 17 13 15 12 15 -10 3 l-24 -12 6 47 c4
26 7 61 7 77 0 16 4 27 9 24 5 -3 7 -15 4 -26 -3 -11 0 -27 7 -35 10 -12 15
-12 37 2 24 16 24 17 7 30 -22 16 -13 17 21 1 23 -10 29 -8 58 20 18 18 37 32
42 32 15 1 68 50 62 57 -4 3 0 15 8 27 22 30 19 36 -19 36 -19 0 -38 5 -42 11
-9 15 17 30 41 23 14 -4 16 -3 7 4 -10 7 1 16 42 33 39 16 56 28 56 41 0 32
46 111 99 168 43 48 50 52 51 32 0 -13 4 -20 10 -17 6 3 10 -1 10 -10 0 -8 -7
-18 -15 -21 -8 -4 -15 -11 -15 -16 0 -6 6 -8 13 -5 52 22 53 21 28 -6 -14 -15
-21 -30 -18 -34 12 -11 43 26 55 64 12 40 6 58 -11 32 -9 -15 -14 -12 -34 18
-18 27 -23 46 -21 82 3 41 1 46 -19 49 -15 2 -23 10 -23 23 0 11 -7 19 -16 19
-8 0 -12 5 -9 10 4 7 -2 9 -19 4 -14 -3 -26 -3 -26 0 0 3 25 35 55 71 40 47
55 72 55 95 0 19 -5 30 -14 30 -19 0 -66 -39 -76 -64 -7 -17 -9 -15 -9 16 -1
34 1 37 45 52 51 17 64 14 64 -14 0 -12 5 -17 13 -14 8 3 17 -11 25 -39 16
-54 102 -146 102 -110 0 12 5 23 12 25 8 3 7 14 -5 38 -21 41 -21 46 -2 30 26
-21 16 4 -16 43 l-31 37 37 35 c20 20 39 34 43 31 4 -3 9 23 10 56 2 52 7 66
36 102 79 97 60 93 -40 -10 -60 -62 -126 -121 -147 -133 -53 -29 -57 -26 -9 8
22 16 43 36 48 43 4 8 0 7 -12 -3 -10 -9 -26 -20 -34 -24 -12 -7 -12 -5 1 11
9 10 19 26 23 34 9 17 -48 -41 -80 -81 -28 -37 -144 -94 -144 -71 0 5 17 14
38 20 30 9 37 16 37 37 0 18 -4 24 -15 20 -8 -4 3 12 24 34 22 22 42 38 45 36
7 -8 141 127 141 142 0 7 21 24 48 38 26 14 36 23 23 19 -16 -4 -21 -3 -17 5
4 7 1 9 -7 5 -32 -12 -25 19 29 125 31 61 54 116 52 123 -2 6 -17 -19 -33 -57
-17 -38 -52 -104 -80 -147 -60 -94 -120 -198 -120 -209 0 -4 -6 -14 -12 -20
-7 -7 -13 -10 -13 -6 0 3 -34 -18 -76 -48 -42 -30 -81 -55 -88 -55 -6 0 -3 5
6 11 10 5 22 18 28 29 9 17 7 17 -40 -3 -36 -15 -53 -18 -61 -10 -7 7 0 17 24
32 70 43 207 205 199 235 -2 5 2 22 7 37 6 19 6 29 0 29 -5 0 -3 12 4 28 8 15
27 64 41 110 16 47 33 82 41 82 11 0 25 20 25 38 0 3 -13 -7 -30 -23 -21 -20
-37 -54 -55 -112 -14 -46 -35 -99 -45 -116 -11 -18 -20 -36 -20 -42 1 -5 7 1
15 15 19 34 19 6 0 -52 -18 -52 -99 -151 -168 -204 -60 -47 -76 -34 -19 15 23
20 44 47 47 59 5 28 36 70 56 77 25 8 58 78 68 141 4 33 12 68 16 78 6 13 5
17 -3 12 -6 -3 -19 -30 -30 -59 -32 -85 -35 -100 -23 -93 6 4 11 4 11 -1 -1
-12 -29 -59 -30 -49 0 5 -18 -14 -39 -43 -36 -49 -95 -101 -112 -101 -11 0 18
100 34 119 8 9 27 38 42 64 l27 48 -26 -12 c-15 -7 -25 -17 -23 -23 2 -6 -6
-23 -19 -39 -13 -15 -33 -54 -45 -87 -12 -33 -24 -60 -26 -60 -2 0 -1 9 2 20
4 12 1 27 -5 35 -6 8 -9 19 -5 25 3 5 1 10 -4 10 -6 0 -11 -11 -11 -25 0 -14
-4 -25 -10 -25 -18 0 -11 -61 10 -87 11 -14 20 -33 21 -42 0 -12 2 -12 8 3 7
17 12 13 41 -30 19 -27 41 -54 49 -61 13 -10 11 -11 -13 -9 -16 2 -37 14 -48
27 -23 28 -14 7 14 -33 11 -16 24 -28 30 -28 6 0 5 7 -3 18 -13 15 -12 16 3 3
10 -7 15 -17 12 -22 -3 -5 9 -17 27 -28 l32 -20 -29 0 c-16 0 -48 -2 -71 -4
l-43 -3 -19 51 c-43 113 -56 175 -60 273 -1 12 -6 22 -11 22 -10 0 -8 -28 6
-115 l4 -30 -47 46 c-27 25 -57 51 -68 59 l-20 14 20 -25 c11 -13 0 -4 -25 22
-25 25 -54 51 -65 57 -19 10 -19 11 -1 31 11 12 15 21 9 21 -24 0 -121 -110
-156 -177 -21 -40 -41 -73 -45 -73 -4 0 -25 34 -46 76 -39 75 -86 132 -127
154 -18 10 -20 9 -15 -7 5 -14 -1 -23 -19 -33 -14 -7 -23 -15 -20 -18 8 -8
-46 -66 -79 -86 l-31 -18 35 38 c42 45 12 26 -56 -36 -43 -39 -54 -56 -78
-129 -40 -123 -34 -118 -141 -112 -35 2 -38 4 -21 14 34 21 96 79 96 90 0 5
-9 -1 -19 -14 -10 -13 -34 -32 -52 -42 -34 -19 -34 -19 -10 1 16 13 20 21 12
26 -8 5 -4 14 13 27 13 11 35 36 47 57 29 49 29 48 37 36 4 -7 14 3 23 22 9
18 12 31 6 27 -6 -4 -8 8 -4 33 4 22 3 53 -2 69 -7 27 -8 24 -16 -30 l-7 -60
-13 41 c-15 53 -56 134 -67 134 -4 0 -8 9 -8 20 0 10 -9 24 -20 30 -29 16 -25
1 19 -68 34 -51 61 -116 61 -144 0 -16 -17 -7 -61 29 -24 21 -38 30 -31 21 9
-11 9 -17 2 -20 -6 -2 12 -25 40 -52 56 -53 59 -70 8 -38 -69 43 -173 166
-188 223 -6 22 -14 48 -16 57 -4 11 2 8 16 -8 20 -24 20 -22 -3 25 -13 28 -32
75 -41 105 -29 93 -36 106 -66 128 -26 20 -28 20 -23 2z m668 -427 c-41 -53
-52 -66 -40 -43 18 33 69 100 72 96 3 -2 -12 -26 -32 -53z m410 -18 c9 -16 10
-22 3 -11 -7 10 -23 31 -35 46 -13 15 -23 32 -23 36 1 13 38 -36 55 -71z m626
27 c-11 -16 -28 -35 -38 -43 -10 -8 -3 5 16 29 37 47 53 58 22 14z m-600 1
c13 -16 12 -17 -3 -4 -17 13 -22 21 -14 21 2 0 10 -8 17 -17z m-390 -20 c-5
-10 -42 -49 -82 -88 l-72 -70 74 87 c70 82 101 109 80 71z m375 -70 l78 -88
-73 70 c-64 62 -100 105 -88 105 3 0 40 -39 83 -87z m87 -43 c13 0 7 23 -10
44 -10 11 5 2 32 -21 28 -22 57 -49 66 -59 17 -19 98 -258 100 -291 0 -16 1
-16 8 2 5 11 5 25 1 30 -4 6 -10 27 -13 49 -6 36 -5 37 12 22 10 -9 20 -14 22
-12 2 2 2 -20 1 -50 -3 -42 -1 -53 10 -49 9 4 12 19 9 51 -2 32 0 44 8 40 34
-21 -3 -167 -68 -266 -38 -59 -267 -297 -257 -267 9 28 -7 20 -32 -17 -12 -18
-20 -40 -17 -48 6 -15 -12 -36 -30 -36 -5 0 -11 -6 -14 -13 -2 -7 1 -9 9 -4 9
6 11 4 5 -5 -6 -10 -13 -8 -28 11 -15 19 -18 35 -15 84 4 62 34 121 135 268
35 51 25 43 -30 -24 -18 -23 -24 -26 -16 -10 9 19 9 22 -3 15 -7 -5 -19 -9
-25 -10 -17 -3 8 44 45 88 34 39 72 94 72 102 0 3 -4 6 -8 6 -10 0 -134 -182
-153 -223 -6 -14 -16 -24 -20 -21 -13 8 -11 -9 6 -50 12 -28 12 -36 3 -36 -7
0 -36 -17 -64 -39 l-50 -38 -28 22 c-34 27 -22 39 36 38 20 0 37 2 36 6 -1 3
2 13 6 23 4 9 1 29 -8 47 -9 16 -17 40 -18 53 -1 13 -4 -5 -7 -40 -3 -34 -10
-62 -16 -62 -5 0 -13 30 -16 67 -3 38 -6 55 -7 40 -1 -15 -9 -39 -18 -52 -11
-16 -14 -36 -11 -55 4 -16 2 -32 -2 -35 -15 -9 -72 29 -66 43 14 37 16 62 6
62 -6 0 -11 6 -11 14 0 7 -34 64 -75 125 -79 117 -91 153 -17 51 28 -39 48
-57 57 -53 18 6 19 14 5 31 -5 7 2 1 17 -12 22 -21 24 -27 14 -40 -7 -9 -18
-13 -25 -9 -6 3 -7 2 -3 -3 5 -5 14 -9 20 -9 5 0 11 -9 12 -20 1 -11 6 -29 12
-39 10 -17 12 -16 28 18 10 20 28 46 41 59 13 12 24 26 24 31 0 5 -10 0 -22
-12 l-23 -21 0 117 c0 130 -12 223 -25 202 -6 -10 -9 -6 -12 11 -2 16 -9 23
-20 21 -11 -2 -18 3 -18 12 0 8 -3 22 -6 30 -4 11 -2 15 8 11 18 -7 31 20 48
98 8 35 16 53 21 45 4 -7 4 -17 -1 -23 -5 -6 -3 -33 4 -65 10 -41 15 -50 21
-37 4 9 5 31 3 47 -4 28 -4 29 14 14 14 -13 21 -14 32 -5 12 10 15 7 18 -24 4
-48 22 -45 29 5 8 58 29 76 29 24 0 -41 24 -89 41 -79 10 7 12 -25 3 -50 -5
-12 -9 -13 -14 -4 -6 9 -14 6 -30 -9 -18 -17 -24 -39 -35 -144 l-13 -123 3
135 4 135 -14 -80 c-7 -44 -14 -115 -14 -158 -1 -68 2 -82 23 -110 14 -18 32
-45 40 -61 l15 -30 12 30 c17 42 18 67 2 82 -14 14 -17 81 -6 145 3 21 9 34
12 29 3 -5 29 -11 58 -14 46 -4 53 -3 64 19 7 12 14 21 16 19 9 -9 -23 -54
-86 -120 -36 -38 -56 -64 -44 -57 20 10 22 9 16 -6 -6 -16 -4 -16 16 2 13 11
25 18 27 15 2 -3 28 26 58 63 45 57 56 78 66 133 7 36 10 84 6 107 -4 29 -3
37 4 27 5 -8 13 -42 17 -75 l7 -60 8 40 c5 22 6 51 3 65 l-6 24 21 -19 c12
-11 33 -39 47 -62 20 -34 24 -53 21 -102 -1 -33 1 -63 5 -67 4 -4 7 7 7 24 0
18 5 41 12 51 9 14 7 34 -6 87 -27 111 -49 145 -114 188 -32 20 -71 54 -87 74
l-28 37 39 -37 c22 -21 43 -38 47 -38z m-616 42 c-17 -19 -23 -42 -10 -42 4 0
23 15 41 33 l35 32 -24 -33 c-13 -18 -41 -43 -64 -56 -67 -40 -94 -74 -114
-145 -23 -79 -33 -151 -20 -151 5 0 9 -9 9 -19 0 -11 4 -22 9 -26 6 -3 7 16 4
48 -4 38 -1 62 10 84 18 35 65 93 75 93 4 0 6 -33 5 -72 l-2 -73 14 73 c7 41
16 76 19 80 3 3 6 -24 6 -60 0 -36 7 -87 15 -114 8 -27 15 -57 15 -68 0 -10
24 -51 54 -90 55 -73 91 -133 65 -108 -7 6 -19 12 -27 12 -7 0 -10 -5 -7 -12
8 -16 -31 26 -63 67 -29 37 -17 11 14 -30 34 -46 118 -186 132 -220 6 -16 11
-48 10 -70 -1 -41 -29 -100 -41 -88 -11 10 -8 25 2 18 13 -7 -55 105 -74 125
-13 13 -15 12 -15 -1 0 -8 3 -20 8 -25 4 -6 -44 41 -105 103 -62 62 -131 140
-153 173 -70 103 -107 228 -80 270 7 11 10 4 10 -27 0 -23 5 -45 10 -48 6 -4
10 8 10 30 0 35 24 85 40 85 5 0 4 -15 -1 -32 -5 -18 -9 -40 -8 -48 0 -8 20
44 44 115 43 126 46 132 102 182 59 53 79 68 50 35z m370 -24 c-3 -8 -6 -5 -6
6 -1 11 2 17 5 13 3 -3 4 -12 1 -19z m-265 -43 c-4 -5 -8 -2 -10 8 -2 12 -9
16 -19 13 -13 -5 -14 -4 -3 9 11 14 14 13 25 -2 7 -10 10 -22 7 -28z m428 30
c11 -13 10 -14 -4 -9 -11 4 -16 1 -16 -11 0 -9 -4 -13 -10 -10 -6 4 -5 13 3
25 14 24 12 23 27 5z m-854 -173 c-10 -2 -22 0 -28 6 -6 6 0 7 19 4 21 -5 23
-7 9 -10z m1271 2 c-3 -3 -12 -4 -19 -1 -8 3 -5 6 6 6 11 1 17 -2 13 -5z
m-1240 -126 c7 -46 45 -139 84 -204 19 -31 84 -110 144 -177 135 -147 193
-216 206 -242 5 -11 -3 -4 -18 15 -15 19 -87 96 -159 170 -146 152 -181 198
-229 304 -30 67 -75 200 -75 222 1 21 42 -58 47 -88z m1221 25 c-49 -165 -127
-289 -282 -446 -107 -109 -97 -91 15 28 128 136 207 263 233 373 11 49 40 112
51 112 2 0 -6 -30 -17 -67z m49 45 c-3 -8 -6 -5 -6 6 -1 11 2 17 5 13 3 -3 4
-12 1 -19z m-87 -8 c0 -5 -2 -10 -4 -10 -3 0 -8 5 -11 10 -3 6 -1 10 4 10 6 0
11 -4 11 -10z m70 -47 c-11 -17 -11 -17 -6 0 3 10 6 24 7 30 0 9 2 9 5 0 3 -7
0 -20 -6 -30z m-832 -55 c37 3 52 8 55 20 5 24 27 -81 27 -128 0 -22 -3 -40
-7 -39 -13 1 -153 159 -153 172 0 6 6 3 14 -8 11 -16 23 -19 64 -17z m231
-161 c1 -5 -3 -5 -9 -2 -5 3 -10 16 -9 28 0 21 1 21 9 2 5 -11 9 -24 9 -28z
m415 -174 c-11 -34 -39 -83 -46 -83 -5 0 -1 17 7 37 21 50 52 87 39 46z m18
-55 c-8 -8 -9 -4 -5 13 4 13 8 18 11 10 2 -7 -1 -18 -6 -23z m-889 -14 c-9
-23 -23 -16 -23 12 0 22 2 24 14 14 8 -6 12 -18 9 -26z m487 -45 c-20 -68 -13
-105 25 -144 42 -41 33 -47 -12 -7 -18 15 -36 43 -42 62 l-9 35 -1 -32 c-1
-24 8 -43 34 -72 19 -21 35 -42 35 -47 -1 -5 -13 -25 -28 -45 -15 -20 -41 -54
-58 -76 l-30 -41 -45 57 c-25 31 -54 68 -63 84 l-18 27 41 45 c34 37 41 51 40
82 l-1 38 -9 -41 c-9 -40 -72 -115 -85 -102 -3 4 9 20 27 36 35 31 42 68 27
142 -7 30 -6 33 6 18 9 -12 16 -14 23 -7 8 8 18 6 34 -4 20 -13 27 -14 42 -2
10 7 27 11 37 8 13 -3 22 1 26 11 11 29 14 11 4 -25z m390 21 c-24 -15 -36
-11 -14 4 10 8 21 12 24 10 2 -3 -2 -9 -10 -14z m-936 -12 c-4 -6 -2 -8 4 -5
15 10 42 -3 42 -19 0 -10 -12 -14 -40 -14 -45 0 -48 -5 -22 -33 16 -19 16 -20
-4 -9 -32 17 -37 40 -13 73 19 26 49 33 33 7z m846 -73 c0 -5 -5 -3 -10 5 -5
8 -10 20 -10 25 0 6 5 3 10 -5 5 -8 10 -19 10 -25z m-698 3 c-7 -7 -12 -8 -12
-2 0 14 12 26 19 19 2 -3 -1 -11 -7 -17z m150 -33 c11 -21 8 -18 -32 30 -24
29 -24 29 -2 10 13 -11 28 -29 34 -40z m350 -14 c-15 -21 -29 -37 -31 -35 -4
4 47 74 54 74 3 0 -8 -18 -23 -39z m-415 -83 c-3 -8 -6 -5 -6 6 -1 11 2 17 5
13 3 -3 4 -12 1 -19z m234 -205 c13 -16 12 -17 -3 -4 -17 13 -22 21 -14 21 2
0 10 -8 17 -17z"/>
<path d="M3166 1287 c3 -10 9 -15 12 -12 3 3 0 11 -7 18 -10 9 -11 8 -5 -6z"/>
<path d="M2712 1270 c0 -14 2 -19 5 -12 2 6 2 18 0 25 -3 6 -5 1 -5 -13z"/>
<path d="M3241 1172 c-2 -47 -47 -110 -154 -217 -107 -107 -178 -192 -190
-227 -13 -37 12 -16 46 40 19 31 87 111 151 177 118 122 161 186 153 227 l-4
23 -2 -23z"/>
<path d="M3105 998 l-50 -53 53 50 c28 27 52 51 52 52 0 8 -9 -1 -55 -49z"/>
<path d="M2772 1020 c0 -14 2 -19 5 -12 2 6 2 18 0 25 -3 6 -5 1 -5 -13z"/>
<path d="M2731 1014 c0 -11 3 -14 6 -6 3 7 2 16 -1 19 -3 4 -6 -2 -5 -13z"/>
<path d="M3089 913 c-13 -16 -12 -17 4 -4 16 13 21 21 13 21 -2 0 -10 -8 -17
-17z"/>
<path d="M2917 703 c-4 -3 -7 -11 -7 -17 0 -6 5 -5 12 2 6 6 9 14 7 17 -3 3
-9 2 -12 -2z"/>
<path d="M2255 1183 c6 -74 22 -99 148 -231 62 -64 132 -145 156 -179 24 -35
45 -63 47 -63 2 0 -1 12 -7 27 -13 36 -50 84 -118 156 -30 31 -51 57 -47 57 4
0 -2 14 -14 31 -12 16 -25 28 -28 25 -3 -3 3 -16 14 -28 18 -22 17 -22 -8 1
-15 13 -26 29 -25 35 1 6 -3 10 -10 9 -7 -2 -27 16 -46 40 -32 38 -49 79 -61
147 -3 14 -3 2 -1 -27z"/>
<path d="M2725 747 c12 -10 14 -16 7 -21 -7 -4 -12 -13 -12 -19 0 -7 7 -3 15
7 13 17 17 17 32 5 15 -12 16 -12 10 3 -4 11 0 21 11 27 23 14 6 14 -20 0 -14
-8 -23 -8 -31 0 -6 6 -15 11 -21 11 -5 0 -2 -6 9 -13z"/>
<path d="M2740 687 c0 -8 -11 -36 -25 -63 -14 -27 -25 -54 -25 -59 0 -19 51
-85 66 -85 14 0 54 55 54 75 0 6 -9 -4 -19 -21 -11 -18 -24 -35 -29 -38 -10
-6 -62 48 -62 64 0 4 12 31 26 59 l27 51 19 -40 c20 -40 48 -71 48 -52 0 5 -7
15 -14 22 -8 6 -23 31 -32 56 -16 42 -34 58 -34 31z"/>
<path d="M2737 602 c-22 -25 -21 -65 2 -86 17 -16 19 -15 35 8 21 33 20 59 -2
80 -18 15 -20 15 -35 -2z m27 -47 c-3 -14 -10 -25 -14 -25 -14 0 -19 43 -8 63
9 18 11 18 19 4 5 -9 7 -28 3 -42z"/>
<path d="M2466 2091 c-3 -5 1 -14 9 -21 8 -7 15 -19 15 -27 0 -12 3 -13 14 -4
15 13 26 -4 26 -40 0 -17 17 -25 45 -19 6 1 6 -2 2 -7 -5 -4 -13 -9 -18 -9 -5
-1 -14 -2 -20 -3 -5 0 -8 -5 -4 -11 3 -5 -1 -26 -10 -47 l-15 -38 23 26 c12
14 35 41 50 60 15 18 23 24 18 13 -8 -17 -7 -25 5 -35 33 -27 36 -48 14 -84
-11 -18 -26 -36 -33 -39 -7 -2 -7 -5 -2 -5 17 -1 75 56 75 74 0 9 -13 29 -29
45 -17 17 -25 33 -20 41 15 25 -12 64 -75 110 -40 30 -61 36 -70 20z"/>
<path d="M1820 2085 c0 -15 18 -40 24 -34 3 3 -1 14 -9 25 -8 10 -14 15 -15 9z"/>
<path d="M3639 2043 l-34 -36 37 29 c21 16 38 32 38 37 0 12 -5 9 -41 -30z"/>
<path d="M1550 2044 c1 -11 36 -54 45 -54 3 0 17 -12 31 -27 l26 -28 -20 30
c-24 36 -82 93 -82 79z"/>
<path d="M1600 2035 c7 -9 15 -13 17 -11 7 7 -7 26 -19 26 -6 0 -6 -6 2 -15z"/>
<path d="M1801 2040 c2 -8 0 -25 -5 -37 -7 -21 19 -83 34 -83 15 0 18 14 8 34
-11 20 -10 20 7 6 14 -11 12 -2 -9 35 -34 59 -39 65 -35 45z"/>
<path d="M1860 2042 c0 -5 10 -17 21 -28 22 -19 22 -19 10 3 -12 24 -31 39
-31 25z"/>
<path d="M3895 2039 c-11 -17 1 -21 15 -4 8 9 8 15 2 15 -6 0 -14 -5 -17 -11z"/>
<path d="M3670 1998 c-18 -36 -19 -40 -4 -27 15 11 14 6 -5 -25 -17 -30 -18
-36 -5 -25 9 8 20 12 23 10 3 -2 14 9 24 26 15 27 16 33 3 57 l-14 27 -22 -43z"/>
<path d="M3777 2023 c-4 -3 -7 -11 -7 -17 0 -6 5 -5 12 2 6 6 9 14 7 17 -3 3
-9 2 -12 -2z"/>
<path d="M1715 2010 c3 -5 8 -10 11 -10 2 0 4 5 4 10 0 6 -5 10 -11 10 -5 0
-7 -4 -4 -10z"/>
<path d="M2472 1935 c-13 -19 -46 -55 -73 -80 -49 -46 -58 -72 -41 -118 7 -16
11 -15 44 10 37 28 85 83 73 83 -4 0 -28 -18 -54 -40 -47 -40 -74 -53 -51 -25
7 8 10 22 6 30 -3 10 17 40 59 86 36 39 65 75 65 80 0 14 -3 11 -28 -26z"/>
<path d="M3000 1962 c0 -6 26 -40 59 -74 55 -60 96 -119 72 -104 -15 10 -14
-7 1 -22 29 -29 -10 -8 -54 29 -26 22 -48 35 -48 30 0 -6 5 -11 10 -11 6 0 10
-6 10 -14 0 -8 22 -30 49 -49 l49 -36 4 46 c3 45 1 48 -46 92 -27 25 -62 64
-78 85 -15 21 -28 34 -28 28z"/>
<path d="M2037 1884 c7 -43 23 -93 38 -117 14 -23 25 -38 25 -33 0 5 12 -1 27
-15 l26 -24 -23 32 c-13 18 -28 29 -33 26 -6 -4 -8 0 -4 11 4 9 3 14 -2 11
-12 -7 -25 31 -16 46 7 10 -32 126 -44 134 -4 2 -1 -30 6 -71z"/>
<path d="M2875 1924 c-31 -33 -32 -64 -2 -91 37 -34 54 -38 25 -6 -33 35 -35
61 -7 97 27 34 15 34 -16 0z"/>
<path d="M2515 1929 c-4 -6 -5 -12 -2 -15 2 -3 7 2 10 11 7 17 1 20 -8 4z"/>
<path d="M3808 1869 c-29 -44 -40 -68 -30 -64 9 4 25 10 34 12 10 3 16 9 13
13 -7 11 15 72 33 93 8 9 11 17 6 17 -5 0 -30 -32 -56 -71z"/>
<path d="M3320 1859 c-22 -18 -22 -19 -3 -10 12 6 25 16 28 21 9 15 3 12 -25
-11z"/>
<path d="M2662 1822 l-23 -37 26 28 c14 15 25 32 25 38 0 14 -3 11 -28 -29z"/>
<path d="M2824 1833 c9 -17 21 -35 27 -38 21 -14 16 1 -13 35 l-30 35 16 -32z"/>
<path d="M1692 1837 c-10 -11 -7 -16 14 -26 34 -15 37 -11 15 17 -15 20 -19
21 -29 9z"/>
<path d="M1680 1785 c13 -14 26 -25 28 -25 3 0 -5 11 -18 25 -13 14 -26 25
-28 25 -3 0 5 -11 18 -25z"/>
<path d="M3815 1790 c-10 -11 -16 -22 -13 -25 3 -3 13 6 22 20 20 30 16 32 -9
5z"/>
<path d="M1920 1751 c14 -27 36 -40 27 -17 -4 10 -7 22 -7 27 0 5 -7 9 -15 9
-12 0 -14 -4 -5 -19z"/>
<path d="M3560 1751 c-20 -39 -4 -43 23 -6 15 21 16 25 3 25 -8 0 -20 -9 -26
-19z"/>
<path d="M2660 1745 c-7 -9 -11 -18 -8 -20 3 -3 11 1 18 10 7 9 11 18 8 20 -3
3 -11 -1 -18 -10z"/>
<path d="M2830 1751 c0 -5 5 -13 10 -16 6 -3 10 -2 10 4 0 5 -4 13 -10 16 -5
3 -10 2 -10 -4z"/>
<path d="M2685 1719 c-10 -30 0 -33 13 -4 6 14 7 25 2 25 -5 0 -12 -9 -15 -21z"/>
<path d="M2716 1699 c-8 -41 -8 -49 2 -49 4 0 8 18 10 40 3 48 -3 52 -12 9z"/>
<path d="M2358 1681 c-5 -18 -8 -50 -7 -70 0 -34 1 -34 10 -11 6 13 9 45 7 70
-3 45 -3 45 -10 11z"/>
<path d="M2782 1670 c0 -14 2 -19 5 -12 2 6 2 18 0 25 -3 6 -5 1 -5 -13z"/>
<path d="M3634 1638 l-29 -31 33 23 c17 13 32 27 32 32 0 13 -5 10 -36 -24z"/>
<path d="M2048 1614 c13 -24 40 -49 47 -42 3 2 -9 18 -26 34 -24 22 -29 24
-21 8z"/>
<path d="M3434 1598 l-29 -33 33 29 c17 17 32 31 32 33 0 8 -8 1 -36 -29z"/>
<path d="M3513 1574 c-45 -37 -53 -54 -29 -54 13 0 49 40 70 78 11 18 5 15
-41 -24z"/>
<path d="M3692 1460 c0 -14 2 -19 5 -12 2 6 2 18 0 25 -3 6 -5 1 -5 -13z"/>
<path d="M3666 1437 c3 -10 9 -15 12 -12 3 3 0 11 -7 18 -10 9 -11 8 -5 -6z"/>
<path d="M3691 1414 c0 -11 3 -14 6 -6 3 7 2 16 -1 19 -3 4 -6 -2 -5 -13z"/>
<path d="M3289 1391 c13 -12 28 -21 34 -21 12 0 11 0 -28 24 l-30 17 24 -20z"/>
<path d="M1888 1285 c-25 -34 -22 -43 3 -11 12 15 20 29 18 31 -2 1 -12 -7
-21 -20z"/>
<path d="M3606 1275 c28 -37 41 -47 25 -17 -17 27 -38 52 -45 52 -4 0 5 -16
20 -35z"/>
<path d="M3507 1250 c3 -11 9 -17 14 -14 14 8 10 34 -5 34 -9 0 -12 -7 -9 -20z"/>
<path d="M1790 1085 c13 -14 26 -25 28 -25 3 0 -5 11 -18 25 -13 14 -26 25
-28 25 -3 0 5 -11 18 -25z"/>
<path d="M1760 1082 c0 -18 12 -42 21 -42 14 0 10 26 -6 40 -9 8 -15 8 -15 2z"/>
<path d="M3717 1072 c-10 -10 -14 -22 -10 -25 3 -4 13 2 21 14 18 26 10 35
-11 11z"/>
<path d="M1936 1054 l-28 -25 -23 21 c-20 19 -24 20 -38 6 -9 -9 -21 -16 -27
-16 -21 0 -71 -48 -58 -56 6 -4 19 3 30 16 22 27 25 4 3 -26 -17 -22 -19 -34
-6 -34 5 0 21 24 35 54 14 30 30 57 35 60 10 7 41 -37 41 -58 0 -19 37 -63 46
-54 4 5 -1 17 -11 28 -21 23 -13 39 10 20 12 -10 19 -10 27 -2 9 9 8 12 -5 12
-10 0 -17 8 -17 21 0 13 4 18 12 13 7 -5 9 -2 5 8 -3 9 0 21 6 27 22 22 -9 10
-37 -15z"/>
<path d="M3656 1038 c14 -47 32 -86 44 -93 19 -12 24 4 8 22 -9 10 -21 35 -28
56 -6 20 -16 37 -21 37 -6 0 -7 -10 -3 -22z"/>
<path d="M3690 1021 c0 -12 29 -41 41 -41 14 0 11 8 -11 30 -22 22 -30 25 -30
11z"/>
<path d="M3470 973 c0 -4 21 -26 46 -48 26 -22 59 -60 75 -84 29 -45 39 -49
18 -8 -29 55 -139 167 -139 140z"/>
<path d="M3730 931 c-45 -45 -97 -127 -87 -137 3 -3 15 12 27 33 12 21 50 64
84 95 42 40 55 58 43 58 -10 0 -40 -22 -67 -49z"/>
<path d="M3304 698 l-19 -23 23 19 c21 18 27 26 19 26 -2 0 -12 -10 -23 -22z"/>
<path d="M2459 497 c15 -19 80 -61 86 -56 2 2 -20 19 -48 38 -29 19 -46 27
-38 18z"/>
<path d="M2805 350 c-3 -5 -1 -10 4 -10 6 0 11 5 11 10 0 6 -2 10 -4 10 -3 0
-8 -4 -11 -10z"/>
</g>
</svg>
