<?xml version="1.0" standalone="no"?>
<!DOCTYPE svg PUBLIC "-//W3C//DTD SVG 20010904//EN"
 "http://www.w3.org/TR/2001/REC-SVG-20010904/DTD/svg10.dtd">
<svg version="1.0" xmlns="http://www.w3.org/2000/svg"
 width="18.000000pt" height="16.000000pt" viewBox="0 0 18.000000 16.000000"
 preserveAspectRatio="xMidYMid meet">

<g transform="translate(0.000000,16.000000) scale(0.100000,-0.100000)"
fill="#000000" stroke="none">
<path d="M140 135 c-7 -8 -16 -12 -21 -9 -5 3 -8 0 -7 -8 2 -8 -5 -12 -17 -10
-14 2 -16 0 -7 -6 10 -7 10 -11 -2 -21 -8 -6 -16 -8 -18 -4 -3 4 -3 2 -2 -4 2
-7 -2 -16 -9 -20 -7 -5 -19 -17 -27 -28 -14 -19 -14 -20 6 -2 11 9 24 14 28
10 4 -5 6 -1 4 7 -2 10 4 14 17 13 11 -1 14 0 7 3 -10 5 -10 9 -1 20 10 12 14
12 22 2 6 -9 7 -8 3 4 -3 10 0 21 7 25 15 10 41 43 34 43 -2 0 -10 -7 -17 -15z"/>
</g>
</svg>
